<svg width="24" height="24" viewBox="0 0 24 24" fill="none" xmlns="http://www.w3.org/2000/svg">
<path d="M17.4903 8.07839C17.7044 7.80758 17.6584 7.41454 17.3876 7.2005C17.1167 6.98646 16.7237 7.03248 16.5097 7.30328L9.97383 15.5724L9.96649 15.5819C9.94248 15.6135 9.91128 15.6389 9.87548 15.656C9.83967 15.6731 9.8003 15.6814 9.76064 15.6803C9.72097 15.6791 9.68217 15.6684 9.64745 15.6492C9.61273 15.63 9.5831 15.6028 9.56103 15.5698L9.55257 15.5575L7.51091 12.66C7.31208 12.3778 6.92217 12.3103 6.64 12.5091C6.35783 12.7079 6.29027 13.0978 6.48909 13.38L8.52704 16.2722C8.65934 16.4675 8.83587 16.6288 9.04229 16.743C9.25119 16.8585 9.48468 16.9226 9.72331 16.9297C9.96195 16.9368 10.1988 16.8869 10.4143 16.784C10.6276 16.682 10.8139 16.5311 10.9577 16.3435L17.4903 8.07839Z" fill="#09A3AE"/>
<path fill-rule="evenodd" clip-rule="evenodd" d="M12 2C9.34784 2 6.8043 3.05357 4.92893 4.92893C3.05357 6.8043 2 9.34784 2 12C2 14.6522 3.05357 17.1957 4.92893 19.0711C6.8043 20.9464 9.34783 22 12 22C14.6522 22 17.1957 20.9464 19.0711 19.0711C20.9464 17.1957 22 14.6522 22 12C22 9.34784 20.9464 6.8043 19.0711 4.92893C17.1957 3.05357 14.6522 2 12 2ZM5.81282 5.81282C7.45376 4.17187 9.67936 3.25 12 3.25C14.3206 3.25 16.5462 4.17187 18.1872 5.81282C19.8281 7.45376 20.75 9.67936 20.75 12C20.75 14.3206 19.8281 16.5462 18.1872 18.1872C16.5462 19.8281 14.3206 20.75 12 20.75C9.67936 20.75 7.45376 19.8281 5.81282 18.1872C4.17187 16.5462 3.25 14.3206 3.25 12C3.25 9.67936 4.17187 7.45376 5.81282 5.81282Z" fill="#09A3AE"/>
</svg>
