<svg width="16" height="16" viewBox="0 0 16 16" fill="none" xmlns="http://www.w3.org/2000/svg">
<path fill-rule="evenodd" clip-rule="evenodd" d="M2.34315 2.34315C3.84344 0.842855 5.87827 0 8 0C10.1217 0 12.1566 0.842855 13.6569 2.34315C15.1571 3.84344 16 5.87827 16 8C16 10.1217 15.1571 12.1566 13.6569 13.6569C12.1566 15.1571 10.1217 16 8 16C5.87827 16 3.84344 15.1571 2.34315 13.6569C0.842855 12.1566 0 10.1217 0 8C0 5.87827 0.842855 3.84344 2.34315 2.34315Z" fill="#FDD927"/>
<path d="M8.5 3.5C8.5 3.22386 8.27614 3 8 3C7.72386 3 7.5 3.22386 7.5 3.5V9C7.5 9.27614 7.72386 9.5 8 9.5C8.27614 9.5 8.5 9.27614 8.5 9V3.5Z" fill="black"/>
<path d="M8 10.5C7.85167 10.5 7.70666 10.544 7.58332 10.6264C7.45999 10.7088 7.36386 10.8259 7.30709 10.963C7.25032 11.1 7.23547 11.2508 7.26441 11.3963C7.29335 11.5418 7.36478 11.6754 7.46967 11.7803C7.57456 11.8852 7.7082 11.9566 7.85368 11.9856C7.99917 12.0145 8.14997 11.9997 8.28701 11.9429C8.42405 11.8861 8.54119 11.79 8.6236 11.6667C8.70601 11.5433 8.75 11.3983 8.75 11.25C8.75 11.0511 8.67098 10.8603 8.53033 10.7197C8.38968 10.579 8.19891 10.5 8 10.5Z" fill="black"/>
</svg>
