<svg width="20" height="20" viewBox="0 0 20 20" fill="none" xmlns="http://www.w3.org/2000/svg">
<path d="M10.1831 1.69194C9.93898 1.44786 9.93898 1.05214 10.1831 0.808058C10.4271 0.563981 10.8229 0.563981 11.0669 0.808058L19.8169 9.55806C19.939 9.6801 20 9.84005 20 10C20 10.0847 19.9831 10.1655 19.9526 10.2392C19.9221 10.313 19.8769 10.382 19.8169 10.4419L11.0669 19.1919C10.8229 19.436 10.4271 19.436 10.1831 19.1919C9.93898 18.9479 9.93898 18.5521 10.1831 18.3081L17.8661 10.625H0.625C0.279823 10.625 0 10.3452 0 10C0 9.65482 0.279823 9.375 0.625 9.375H17.8661L10.1831 1.69194Z" fill="black"/>
</svg>
