<svg width="20" height="20" viewBox="0 0 20 20" fill="none" xmlns="http://www.w3.org/2000/svg">
<path d="M0.625 11.875V19.375" stroke="#09A3AE" stroke-width="1.25" stroke-linecap="round" stroke-linejoin="round"/>
<path d="M0.625 18.125H13.125C13.125 17.462 12.8616 16.8261 12.3928 16.3572C11.9239 15.8884 11.288 15.625 10.625 15.625H7.5C7.5 14.962 7.23661 14.3261 6.76777 13.8572C6.29893 13.3884 5.66304 13.125 5 13.125H0.625" stroke="#09A3AE" stroke-width="1.25" stroke-linecap="round" stroke-linejoin="round"/>
<path d="M5 15.625H7.5" stroke="#09A3AE" stroke-width="1.25" stroke-linecap="round" stroke-linejoin="round"/>
<path d="M14.375 14.375L9.375 12.5V6.25L14.375 8.125V14.375Z" stroke="#09A3AE" stroke-width="1.25" stroke-linecap="round" stroke-linejoin="round"/>
<path d="M14.375 14.375L19.375 12.5V6.25L14.375 8.125V14.375Z" stroke="#09A3AE" stroke-width="1.25" stroke-linecap="round" stroke-linejoin="round"/>
<path d="M19.375 6.25L14.375 4.375L9.375 6.25" stroke="#09A3AE" stroke-width="1.25" stroke-linecap="round" stroke-linejoin="round"/>
<path d="M14.375 4.375C14.375 4.04348 14.5067 3.72554 14.7411 3.49112C14.9755 3.2567 15.2935 3.125 15.625 3.125H18.125C18.4565 3.125 18.7745 2.9933 19.0089 2.75888C19.2433 2.52446 19.375 2.20652 19.375 1.875C19.375 1.54348 19.2433 1.22554 19.0089 0.991117C18.7745 0.756696 18.4565 0.625 18.125 0.625H8.125" stroke="#09A3AE" stroke-width="1.25" stroke-linecap="round" stroke-linejoin="round"/>
</svg>
