<svg width="32" height="32" viewBox="0 0 32 32" fill="none" xmlns="http://www.w3.org/2000/svg">
<rect width="32" height="32" rx="16" fill="#FCC00E"/>
<path d="M16 19.75C15.9382 19.75 15.8778 19.7683 15.8264 19.8027C15.775 19.837 15.7349 19.8858 15.7113 19.9429C15.6876 20 15.6814 20.0628 15.6935 20.1235C15.7056 20.1841 15.7353 20.2398 15.779 20.2835C15.8227 20.3272 15.8784 20.3569 15.939 20.369C15.9997 20.3811 16.0625 20.3749 16.1196 20.3512C16.1767 20.3276 16.2255 20.2875 16.2598 20.2361C16.2942 20.1847 16.3125 20.1243 16.3125 20.0625C16.3125 19.9796 16.2796 19.9001 16.221 19.8415C16.1624 19.7829 16.0829 19.75 16 19.75Z" fill="black" stroke="black" stroke-width="1.25" stroke-linecap="round" stroke-linejoin="round"/>
<path d="M16 17.25V10.375" stroke="black" stroke-width="1.25" stroke-linecap="round"/>
<path d="M6.625 16C6.625 18.4864 7.61272 20.871 9.37087 22.6291C11.129 24.3873 13.5136 25.375 16 25.375C18.4864 25.375 20.871 24.3873 22.6291 22.6291C24.3873 20.871 25.375 18.4864 25.375 16C25.375 13.5136 24.3873 11.129 22.6291 9.37087C20.871 7.61272 18.4864 6.625 16 6.625C13.5136 6.625 11.129 7.61272 9.37087 9.37087C7.61272 11.129 6.625 13.5136 6.625 16V16Z" stroke="black" stroke-width="1.25"/>
</svg>
