<svg width="74" height="32" viewBox="0 0 74 32" fill="none" xmlns="http://www.w3.org/2000/svg">
<path d="M23.8532 0.417236H23.6958C23.2139 0.417236 22.7518 0.6084 22.411 0.948661C22.0703 1.28892 21.8789 1.7504 21.8789 2.23161V2.33443C21.8789 2.81563 22.0703 3.27711 22.411 3.61737C22.7518 3.95763 23.2139 4.1488 23.6958 4.1488H23.8532C24.3351 4.1488 24.7972 3.95763 25.138 3.61737C25.4787 3.27711 25.6701 2.81563 25.6701 2.33443V2.23161C25.6701 1.7504 25.4787 1.28892 25.138 0.948661C24.7972 0.6084 24.3351 0.417236 23.8532 0.417236Z" fill="white"/>
<path d="M23.7633 5.77586C23.5402 5.77168 23.3185 5.81275 23.1117 5.89656C22.9049 5.98038 22.7173 6.10522 22.5602 6.26352C22.4031 6.42182 22.2798 6.61029 22.1977 6.81754C22.1156 7.02478 22.0765 7.2465 22.0827 7.46928V18.8998C22.0787 19.1182 22.1194 19.3352 22.2022 19.5374C22.2849 19.7397 22.4081 19.923 22.5642 20.0761C22.722 20.2358 22.9109 20.3616 23.1192 20.4459C23.3274 20.5301 23.5508 20.571 23.7754 20.566C23.9957 20.568 24.2141 20.5264 24.4181 20.4435C24.6221 20.3606 24.8076 20.2381 24.964 20.0832C25.1203 19.9282 25.2442 19.7438 25.3287 19.5407C25.4131 19.3376 25.4564 19.1197 25.456 18.8998V7.46928C25.4615 7.24541 25.4213 7.02276 25.338 6.81484C25.2548 6.60692 25.1301 6.41807 24.9715 6.2597C24.8159 6.10166 24.6294 5.97718 24.4237 5.89396C24.2179 5.81074 23.9973 5.77054 23.7754 5.77586" fill="white"/>
<path d="M35.8271 5.64882H35.697C34.3827 5.64882 33.1654 6.19918 32.0632 7.29082C32.023 6.87408 31.8278 6.48755 31.516 6.2076C31.2043 5.92765 30.7987 5.77465 30.3795 5.77885C30.1579 5.77666 29.9382 5.8189 29.7333 5.90304C29.5283 5.98719 29.3424 6.11153 29.1864 6.26872C28.8779 6.58715 28.7071 7.01404 28.711 7.45715V18.8907C28.7098 19.1096 28.752 19.3265 28.8353 19.529C28.9185 19.7315 29.0411 19.9156 29.1959 20.0705C29.3508 20.2254 29.5349 20.3481 29.7375 20.4316C29.9401 20.5151 30.1573 20.5577 30.3765 20.5569C30.5973 20.5594 30.8164 20.5182 31.0212 20.4357C31.226 20.3532 31.4124 20.231 31.5696 20.0761C31.7299 19.9233 31.857 19.7392 31.9429 19.5353C32.0289 19.3314 32.0719 19.112 32.0692 18.8907V10.8924C32.4666 10.3286 32.9745 9.8512 33.5621 9.48924C34.1922 9.10679 34.9172 8.90876 35.6546 8.91771H35.7848C36.2204 8.92975 36.6449 8.77877 36.9748 8.49436C37.1391 8.3466 37.2689 8.16472 37.3552 7.9615C37.4415 7.75828 37.4822 7.53865 37.4745 7.31804C37.4845 6.87671 37.3189 6.44941 37.0142 6.12964C36.8616 5.97243 36.6783 5.84813 36.4757 5.7644C36.2731 5.68066 36.0555 5.63928 35.8362 5.64278" fill="white"/>
<path d="M55.9689 0.0301919C55.7456 0.0252895 55.5235 0.0647481 55.3156 0.146248C55.1077 0.227747 54.918 0.349667 54.7577 0.504954C54.5977 0.662424 54.4719 0.851071 54.388 1.05915C54.3041 1.26724 54.264 1.49031 54.2701 1.71453V18.9148C54.2659 19.1338 54.307 19.3513 54.3909 19.5537C54.4748 19.7562 54.5997 19.9391 54.7577 20.0911C55.0768 20.403 55.5057 20.5777 55.9523 20.5777C56.3989 20.5777 56.8277 20.403 57.1469 20.0911C57.3055 19.9395 57.4307 19.7567 57.5147 19.5542C57.5986 19.3516 57.6394 19.1339 57.6344 18.9148V1.71453C57.6407 1.49029 57.6007 1.26715 57.5168 1.05904C57.4329 0.850934 57.307 0.662315 57.1469 0.504954C56.9891 0.351309 56.8025 0.230283 56.5977 0.148813C56.393 0.0673433 56.1741 0.0270297 55.9538 0.0301919" fill="white"/>
<path d="M73.0552 16.8012C72.7874 16.5317 72.4239 16.3785 72.0437 16.3748C71.6775 16.3921 71.3205 16.4957 71.0021 16.6772C69.9881 17.1342 68.8829 17.3535 67.771 17.3183C66.5325 17.3183 65.5696 17.0159 64.9004 16.3839C64.3265 15.8415 63.9377 15.1328 63.789 14.3578H72.2678C72.4953 14.3679 72.7224 14.3311 72.9349 14.2496C73.1474 14.1681 73.3409 14.0437 73.5031 13.8842C73.6654 13.7248 73.7929 13.5336 73.8779 13.3227C73.9629 13.1118 74.0034 12.8856 73.9969 12.6584C74.0512 10.8268 73.4293 9.03915 72.2497 7.6356C70.993 6.17504 69.273 5.43115 67.1382 5.43115C64.8792 5.43115 63.1107 6.23552 61.8752 7.81403C60.7912 9.19597 60.2461 10.9468 60.2461 13.0061C60.2461 15.3951 60.9032 17.2729 62.2053 18.5944C63.5074 19.9159 65.3515 20.5842 67.656 20.5842C68.6436 20.5966 69.6282 20.4714 70.5812 20.2122C70.9422 20.1076 71.2945 19.9751 71.635 19.8161C71.9378 19.6679 72.3011 19.4895 72.6918 19.2839C72.9549 19.1493 73.1738 18.9421 73.3225 18.6869C73.4711 18.4318 73.5434 18.1394 73.5306 17.8445C73.5291 17.647 73.4851 17.4521 73.4015 17.2731C73.3179 17.0942 73.1966 16.9353 73.0461 16.8072L73.0552 16.8012ZM64.0858 10.3239C64.3502 9.75143 64.7795 9.2707 65.3189 8.94319C65.8583 8.61568 66.4833 8.45626 67.1139 8.48533C67.9327 8.46438 68.7304 8.74535 69.3547 9.27458C69.9874 9.81536 70.4008 10.568 70.5176 11.3913H63.7315C63.7881 11.0212 63.9047 10.6627 64.0767 10.33" fill="white"/>
<path d="M48.2628 20.1577C48.3022 20.1396 48.3505 20.1215 48.3898 20.1003C48.3324 20.1245 48.278 20.1456 48.2266 20.1729H48.2477L48.3778 20.1214L48.4171 20.0942L48.3778 20.1154C48.3384 20.1366 48.2901 20.1547 48.2507 20.1729" fill="white"/>
<path d="M38.1211 15.008L38.1271 15.014L38.1211 15.002V15.008Z" fill="white"/>
<path d="M52.0995 14.887C52.0432 14.7974 51.9761 14.7152 51.8997 14.642C51.6096 14.3551 51.2178 14.1942 50.8095 14.1945C50.75 14.1915 50.6904 14.1915 50.6309 14.1945C50.5486 14.2019 50.4674 14.2181 50.3886 14.2429C50.1247 14.3159 49.8846 14.4567 49.6921 14.6511C49.6528 14.6904 49.6225 14.7297 49.5892 14.7691C49.5148 14.8518 49.4508 14.9431 49.3984 15.0412C48.9153 15.9618 48.1262 16.6857 47.1667 17.0884C47.1239 17.1019 47.0823 17.1191 47.0425 17.1398H47.0092C46.5146 17.3255 45.9902 17.4197 45.4618 17.418C44.9534 17.418 44.4487 17.3321 43.9689 17.164C43.9377 17.1533 43.9073 17.1402 43.8781 17.1247C43.3012 16.9114 42.7767 16.5774 42.3398 16.1449C41.7143 15.5368 41.286 14.7551 41.1104 13.9012C40.9565 13.1826 40.9836 12.437 41.1891 11.7314C41.3947 11.0258 41.7724 10.3822 42.2883 9.85815C42.585 9.55429 42.9248 9.29551 43.2967 9.09007C43.3418 9.06352 43.3883 9.0393 43.436 9.0175C44.2687 8.59298 45.214 8.44104 46.1381 8.58325C47.0621 8.72546 47.9178 9.15459 48.5838 9.80977C48.8395 10.0633 49.0651 10.3454 49.2561 10.6504C49.3272 10.8177 49.43 10.9696 49.5589 11.098C49.8343 11.358 50.1948 11.5097 50.5735 11.5249C50.9523 11.5401 51.3238 11.4178 51.6192 11.1807C51.9147 10.9435 52.1141 10.6076 52.1807 10.2349C52.2473 9.86225 52.1765 9.47814 51.9814 9.15358C51.311 8.01955 50.3565 7.07937 49.2117 6.42561C48.067 5.77184 46.7715 5.42701 45.4527 5.42505C44.2527 5.42522 43.0697 5.70915 42.0006 6.25361L41.9431 6.28083C41.8965 6.3016 41.851 6.32481 41.8068 6.35038C41.1567 6.70696 40.562 7.1562 40.0414 7.68395C38.644 9.10219 37.8628 11.0134 37.8672 13.0031C37.8683 13.5046 37.918 14.0049 38.0156 14.4969V14.5241C38.0368 14.6088 38.055 14.6995 38.0762 14.7842V14.8114C38.367 15.9897 38.9376 17.0808 39.7398 17.9924C40.542 18.904 41.5522 19.6094 42.685 20.0489L42.7183 20.064L42.9273 20.1396L42.9787 20.1607H42.9969C44.6535 20.7186 46.4517 20.6909 48.0902 20.0821L48.1357 20.064L48.1962 20.0428C48.2477 20.0156 48.2992 19.9974 48.3567 19.9702L48.3961 19.9521H48.4173C49.3159 19.5624 50.1311 19.004 50.8186 18.3071C51.191 17.9361 51.5201 17.5243 51.7997 17.0793C51.8663 16.9735 51.9299 16.8707 51.9905 16.7769C52.0229 16.7247 52.0512 16.6702 52.0753 16.6137C52.1591 16.4873 52.2225 16.3485 52.263 16.2024C52.2763 16.1715 52.2854 16.1389 52.2903 16.1056C52.3022 16.0675 52.3084 16.0277 52.3085 15.9877C52.3529 15.7108 52.3193 15.4271 52.2115 15.1682C52.1727 15.0746 52.1239 14.9854 52.0662 14.9021L52.0995 14.887ZM41.1134 14.2006V14.1552V14.1733C41.1147 14.1844 41.1147 14.1955 41.1134 14.2066" fill="white"/>
<path d="M9.25362 3.06327C9.25792 3.53574 9.14006 4.00131 8.91143 4.41497C9.37958 4.30285 9.85929 4.24602 10.3407 4.24563C11.3727 4.24176 12.3884 4.50317 13.2899 5.0047C14.1915 5.50623 14.9487 6.23101 15.4886 7.10932C15.597 7.33508 15.7446 7.53985 15.9246 7.71411C16.3204 8.10453 16.8552 8.32207 17.4115 8.3189C17.7943 8.32449 18.1715 8.22644 18.503 8.03516C18.8345 7.84388 19.1079 7.56653 19.2942 7.23253C19.4805 6.89854 19.5728 6.52038 19.5612 6.13824C19.5496 5.75609 19.4346 5.38421 19.2284 5.0621C18.772 4.28833 18.2173 3.57683 17.578 2.94533C15.6564 1.05431 13.0658 -0.00397729 10.368 1.12333e-05C9.34206 -0.000357647 8.32169 0.150442 7.33984 0.44755C7.75557 0.57934 8.13427 0.807282 8.44512 1.11282C8.70437 1.36642 8.91063 1.66886 9.05201 2.00262C9.19339 2.33638 9.26708 2.69483 9.26877 3.05722" fill="white"/>
<path d="M0.40064 10.1242C0.656199 9.86144 0.962255 9.65287 1.30047 9.51102C1.63869 9.36917 2.0021 9.29695 2.36894 9.29871C3.09103 9.29879 3.78444 9.58097 4.3009 10.0849C4.29953 10.0739 4.29953 10.0627 4.3009 10.0517C4.29665 9.99329 4.29665 9.93468 4.3009 9.8763C4.3009 9.81582 4.3009 9.75533 4.3009 9.69182L4.32814 9.46805C4.32814 9.4106 4.32817 9.35617 4.35542 9.29871V9.24731C4.35542 9.16264 4.38567 9.08099 4.40384 8.99632C4.41575 8.93408 4.43092 8.87252 4.44927 8.81186C4.4612 8.75162 4.47637 8.69206 4.4947 8.63344C4.4947 8.59715 4.51286 8.56691 4.52194 8.53667C4.53103 8.50643 4.55527 8.43085 4.57344 8.37944C4.59055 8.31662 4.61178 8.25499 4.63702 8.19497C4.66427 8.11029 4.70063 8.02261 4.73697 7.93794C4.77331 7.85327 4.80358 7.77768 4.84295 7.70208C4.95891 7.45398 5.09248 7.21446 5.24265 6.98539C5.29715 6.90374 5.34865 6.82211 5.40921 6.73744C5.59001 6.49249 5.78728 6.26011 5.99968 6.04192C6.08144 5.96027 6.16322 5.87863 6.24801 5.80303C6.3328 5.72743 6.37519 5.69418 6.43879 5.63974C6.54494 5.54794 6.65614 5.46211 6.77187 5.3827C6.84758 5.32524 6.92329 5.27384 7.00505 5.21941H7.02623C7.13827 5.14684 7.25031 5.08031 7.36841 5.01681C7.42195 4.98131 7.47874 4.95092 7.538 4.92608C7.68334 4.84092 7.81845 4.73946 7.94073 4.62368C8.3045 4.27202 8.53021 3.80194 8.57701 3.29851C8.62381 2.79508 8.48862 2.29155 8.1959 1.87902C7.90318 1.46649 7.47224 1.17223 6.98109 1.04945C6.48995 0.926671 5.97104 0.983497 5.51822 1.20965C5.45463 1.23989 5.39407 1.27316 5.3335 1.30642C5.21238 1.37295 5.0882 1.44553 4.9701 1.5181C4.7218 1.66627 4.47351 1.82049 4.23125 2.00495C4.12224 2.08358 4.01324 2.16522 3.90423 2.25292C3.79521 2.34061 3.74372 2.37991 3.66499 2.44946C3.58626 2.51901 3.49539 2.58857 3.41666 2.66114C3.25011 2.80629 3.09266 2.96354 2.93823 3.11474C2.78379 3.26593 2.56879 3.50483 2.39921 3.71953C2.1258 4.03919 1.87392 4.3766 1.6452 4.72953C1.2874 5.28726 0.983225 5.87755 0.73676 6.4925C0.371584 7.40422 0.139075 8.36348 0.0463339 9.34105C0.00640456 9.75406 -0.00772162 10.1691 0.00397236 10.5839C0.1022 10.4361 0.214782 10.2984 0.340092 10.1726" fill="white"/>
<path d="M5.56449 16.0118C5.93493 15.6316 6.40856 15.3677 6.92716 15.2528H6.90897L6.77878 15.162L6.588 15.0139L6.56679 14.9987L6.43357 14.8899C6.39723 14.8627 6.36389 14.8294 6.32755 14.7992C6.29121 14.7689 6.19434 14.6782 6.13075 14.6147C6.06716 14.5512 6.01263 14.4968 5.95509 14.4333C5.9106 14.3908 5.86914 14.3454 5.83097 14.2972C5.75829 14.2156 5.68862 14.1279 5.61897 14.0432C5.55236 13.9646 5.49179 13.8829 5.43123 13.7982C5.4328 13.7913 5.4328 13.784 5.43123 13.7771C5.29445 13.5829 5.16908 13.381 5.05574 13.1723C5.00427 13.0816 4.95582 12.9848 4.91343 12.8911C4.90821 12.8761 4.90107 12.8619 4.89221 12.8487C4.89221 12.8487 4.89221 12.8487 4.89221 12.8336C4.8589 12.758 4.82258 12.6764 4.79533 12.5977C4.78039 12.5683 4.76724 12.538 4.75596 12.507C4.74555 12.4833 4.73647 12.4591 4.72872 12.4344C4.70449 12.3679 4.68027 12.3044 4.65908 12.2379V12.1986C4.6076 12.0413 4.56216 11.8962 4.52582 11.7208C4.52582 11.7208 4.52582 11.7208 4.52582 11.7057C4.52582 11.6906 4.52582 11.7057 4.52582 11.6875C4.52582 11.6694 4.52582 11.6573 4.52582 11.6452C4.52723 11.6261 4.52723 11.6069 4.52582 11.5877C4.43297 11.2088 4.23453 10.8639 3.95349 10.5929C3.64069 10.2809 3.23804 10.0744 2.8019 10.0023C2.36575 9.9302 1.91794 9.99607 1.52114 10.1907C1.12434 10.3853 0.798423 10.699 0.588968 11.0877C0.379512 11.4765 0.297009 11.9209 0.353022 12.3588V12.3861C0.374219 12.507 0.404504 12.625 0.431757 12.7459V12.761L0.456006 12.8245C0.456006 12.8397 0.456006 12.8548 0.456006 12.8699C0.456006 12.885 0.437807 12.8215 0.425695 12.7822C0.440835 12.8427 0.452955 12.9001 0.471124 12.9606C0.501406 13.0695 0.531705 13.1753 0.565015 13.2811C0.598324 13.387 0.628592 13.4928 0.66493 13.6017C0.701268 13.7105 0.737604 13.8103 0.77697 13.9041C0.816336 13.9978 0.83148 14.0432 0.855705 14.1127C0.87993 14.1823 0.934447 14.3123 0.979869 14.4151L1.09191 14.6631C1.11916 14.7266 1.14942 14.7931 1.18273 14.8566L1.19789 14.8899C1.19908 14.902 1.19908 14.9141 1.19789 14.9262C1.24028 14.9987 1.27662 15.0713 1.31296 15.1409C1.4038 15.3072 1.49463 15.4705 1.59456 15.6338C1.63089 15.6943 1.67029 15.7517 1.7036 15.8122L1.90343 16.1146L2.03669 16.3051C2.11744 16.416 2.20222 16.5279 2.29104 16.6408C2.29506 16.6502 2.30131 16.6585 2.30923 16.6649C2.38183 16.7618 2.45963 16.8547 2.54237 16.9432C2.60596 17.0218 2.67259 17.1034 2.7483 17.182C2.824 17.2607 2.86032 17.309 2.92089 17.3695C2.98145 17.43 3.08746 17.5449 3.17528 17.6326C3.26309 17.7203 3.40239 17.8473 3.51443 17.935L3.54773 17.9683C3.56893 17.9864 3.59011 18.0076 3.61131 18.0227C3.6961 18.1013 3.78694 18.1739 3.87476 18.2465L4.06553 18.4007C4.1806 18.4884 4.29265 18.5731 4.41075 18.6547C4.52884 18.7364 4.64089 18.818 4.75293 18.8936L5.05574 19.0871C4.90128 18.7394 4.81985 18.3638 4.81651 17.9834C4.8121 17.2549 5.09746 16.5545 5.60988 16.036" fill="white"/>
<path d="M11.1286 16.2629C10.8695 16.2958 10.6085 16.3119 10.3473 16.3113C10.2171 16.3113 10.09 16.3113 9.95974 16.3113L9.65693 16.2871C9.43295 16.2608 9.21054 16.2225 8.99071 16.1722L8.73333 16.1087C8.61826 16.0785 8.50015 16.0422 8.38205 16.0029L8.32454 15.9817L8.24277 15.9545C8.01172 15.8755 7.76932 15.8346 7.5251 15.8335C7.24296 15.8324 6.9635 15.8881 6.70338 15.9972C6.44325 16.1063 6.20779 16.2666 6.01103 16.4686C5.77607 16.7058 5.60062 16.9951 5.49895 17.3129C5.39729 17.6308 5.37229 17.9681 5.42602 18.2974C5.47976 18.6268 5.61068 18.9387 5.80813 19.2079C6.00557 19.4771 6.26392 19.6958 6.56213 19.8463H6.59847C6.72913 19.9131 6.8674 19.9639 7.01029 19.9975L6.94671 19.9763L7.11025 20.0247L7.03757 20.0035C7.07789 20.0198 7.11937 20.033 7.1617 20.0429C7.28888 20.0852 7.41608 20.1245 7.55234 20.1608L7.91874 20.2575C8.44989 20.3868 8.99071 20.4728 9.53579 20.5146C9.8053 20.5358 10.0748 20.5479 10.3413 20.5479C10.9927 20.5482 11.6427 20.4865 12.2823 20.3634C11.9079 20.2004 11.5743 19.9564 11.3057 19.6491C11.0371 19.3418 10.8401 18.9788 10.7288 18.5863C10.6176 18.1938 10.595 17.7816 10.6625 17.3793C10.7301 16.977 10.8861 16.5947 11.1195 16.2599" fill="white"/>
<path d="M19.6308 13.4203C19.6061 13.3381 19.5768 13.2573 19.543 13.1784C19.3766 12.8039 19.1049 12.4857 18.7608 12.2624C18.4168 12.0391 18.0153 11.9203 17.605 11.9204H17.5323H17.3961H17.2962C17.1934 11.9336 17.0921 11.9558 16.9933 11.9869L16.7935 12.0565C16.6658 12.1112 16.5432 12.1769 16.4271 12.2531C16.2999 12.3347 16.1821 12.43 16.0758 12.5373C15.9249 12.6932 15.7965 12.8692 15.6943 13.0604C15.4703 13.4958 15.1937 13.902 14.8706 14.27C14.7979 14.3547 14.7222 14.4333 14.6465 14.5119C14.1711 14.9933 13.6184 15.3919 13.0113 15.6913C12.8963 15.7487 12.7842 15.7971 12.6691 15.8455C12.5541 15.8939 12.5117 15.909 12.436 15.9483C12.0032 16.1593 11.6553 16.5111 11.4495 16.9458C11.2436 17.3806 11.1922 17.8724 11.3036 18.3402C11.415 18.8081 11.6826 19.2241 12.0623 19.5198C12.4421 19.8155 12.9114 19.9733 13.3929 19.9671C13.6085 19.9668 13.8228 19.9342 14.0288 19.8704H14.047L14.3286 19.7555L14.3982 19.7282H14.4255C14.6072 19.6557 14.7858 19.568 14.9584 19.4803C15.962 18.9783 16.8757 18.3142 17.6626 17.5147C17.926 17.2491 18.1737 16.9684 18.4044 16.6741C18.6219 16.4086 18.8241 16.1309 19.0101 15.8425C19.1009 15.7064 19.1857 15.5612 19.2645 15.4191C19.3159 15.3284 19.3674 15.2407 19.4159 15.15C19.4848 15.038 19.5426 14.9195 19.5885 14.7962C19.5885 14.7659 19.6127 14.7357 19.6187 14.7055C19.6306 14.6751 19.6397 14.6437 19.646 14.6117C19.6624 14.5655 19.6745 14.518 19.6823 14.4696C19.684 14.4424 19.684 14.4152 19.6823 14.388C19.684 14.3547 19.684 14.3214 19.6823 14.2882C19.6853 14.255 19.6853 14.2216 19.6823 14.1884C19.6899 14.0716 19.6899 13.9544 19.6823 13.8376C19.6786 13.6972 19.6614 13.5574 19.6308 13.4203Z" fill="white"/>
<path d="M15.3136 32C14.1772 32 13.2191 31.6218 12.4393 30.8653C11.6595 30.1088 11.2695 29.1186 11.2695 27.8949C11.2695 26.6785 11.6632 25.6884 12.4504 24.9245C13.2451 24.1605 14.1921 23.7786 15.2913 23.7786C16.3013 23.7786 17.1109 24.0344 17.7199 24.5462C18.3364 25.058 18.7337 25.6735 18.912 26.393L17.4637 26.8491C17.3523 26.4041 17.1183 26.0295 16.7618 25.7255C16.4053 25.414 15.9151 25.2582 15.2913 25.2582C14.6451 25.2582 14.077 25.4881 13.5868 25.948C13.104 26.4078 12.8626 27.0568 12.8626 27.8949C12.8626 28.6959 13.1003 29.33 13.5756 29.7972C14.0584 30.2645 14.6377 30.4981 15.3136 30.4981C15.93 30.4981 16.4202 30.3387 16.7841 30.0197C17.1555 29.7008 17.4043 29.3226 17.5305 28.885L18.9677 29.3189C18.886 29.6378 18.7523 29.9493 18.5666 30.2534C18.3883 30.5575 18.1544 30.843 17.8647 31.11C17.5751 31.377 17.2074 31.5921 16.7618 31.7553C16.3236 31.9184 15.8409 32 15.3136 32Z" fill="white"/>
<path d="M21.4194 30.2423C21.6942 30.5167 22.0247 30.6539 22.4109 30.6539C22.7971 30.6539 23.1239 30.5167 23.3912 30.2423C23.666 29.9678 23.8034 29.5859 23.8034 29.0964C23.8034 28.6069 23.666 28.2249 23.3912 27.9505C23.1239 27.6761 22.7971 27.5389 22.4109 27.5389C22.0247 27.5389 21.6942 27.6761 21.4194 27.9505C21.152 28.2249 21.0183 28.6069 21.0183 29.0964C21.0183 29.5859 21.152 29.9678 21.4194 30.2423ZM20.3499 27.016C20.8995 26.4671 21.5865 26.1927 22.4109 26.1927C23.2353 26.1927 23.9186 26.4671 24.4607 27.016C25.0103 27.5648 25.2851 28.2583 25.2851 29.0964C25.2851 29.9345 25.0103 30.6279 24.4607 31.1768C23.9186 31.7256 23.2353 32 22.4109 32C21.5865 32 20.8995 31.7256 20.3499 31.1768C19.8077 30.6279 19.5366 29.9345 19.5366 29.0964C19.5366 28.2583 19.8077 27.5648 20.3499 27.016Z" fill="white"/>
<path d="M27.9364 31.8331H26.4547V23.7786H27.9364V31.8331Z" fill="white"/>
<path d="M30.9933 30.2423C31.2681 30.5167 31.5986 30.6539 31.9848 30.6539C32.371 30.6539 32.6978 30.5167 32.9652 30.2423C33.24 29.9678 33.3774 29.5859 33.3774 29.0964C33.3774 28.6069 33.24 28.2249 32.9652 27.9505C32.6978 27.6761 32.371 27.5389 31.9848 27.5389C31.5986 27.5389 31.2681 27.6761 30.9933 27.9505C30.7259 28.2249 30.5922 28.6069 30.5922 29.0964C30.5922 29.5859 30.7259 29.9678 30.9933 30.2423ZM29.9238 27.016C30.4734 26.4671 31.1604 26.1927 31.9848 26.1927C32.8092 26.1927 33.4925 26.4671 34.0346 27.016C34.5842 27.5648 34.859 28.2583 34.859 29.0964C34.859 29.9345 34.5842 30.6279 34.0346 31.1768C33.4925 31.7256 32.8092 32 31.9848 32C31.1604 32 30.4734 31.7256 29.9238 31.1768C29.3816 30.6279 29.1105 29.9345 29.1105 29.0964C29.1105 28.2583 29.3816 27.5648 29.9238 27.016Z" fill="white"/>
<path d="M39.7162 32C38.5798 32 37.6217 31.6218 36.8419 30.8653C36.062 30.1088 35.6721 29.1186 35.6721 27.8949C35.6721 26.6785 36.0658 25.6884 36.853 24.9245C37.6477 24.1605 38.5947 23.7786 39.6939 23.7786C40.7039 23.7786 41.5135 24.0344 42.1225 24.5462C42.739 25.058 43.1363 25.6735 43.3146 26.393L41.8663 26.8491C41.7549 26.4041 41.5209 26.0295 41.1644 25.7255C40.8079 25.414 40.3177 25.2582 39.6939 25.2582C39.0477 25.2582 38.4795 25.4881 37.9894 25.948C37.5066 26.4078 37.2652 27.0568 37.2652 27.8949C37.2652 28.6959 37.5029 29.33 37.9782 29.7972C38.461 30.2645 39.0403 30.4981 39.7162 30.4981C40.3326 30.4981 40.8228 30.3387 41.1867 30.0197C41.5581 29.7008 41.8069 29.3226 41.9331 28.885L43.3703 29.3189C43.2886 29.6378 43.1549 29.9493 42.9692 30.2534C42.7909 30.5575 42.557 30.843 42.2673 31.11C41.9777 31.377 41.61 31.5921 41.1644 31.7553C40.7262 31.9184 40.2435 32 39.7162 32Z" fill="white"/>
<path d="M45.9093 31.8331H44.4276V23.7786H45.9093V31.8331Z" fill="white"/>
<path d="M48.5762 28.4734H51.0271C51.0123 28.1693 50.9009 27.9134 50.6929 27.7057C50.4924 27.4981 50.1953 27.3942 49.8017 27.3942C49.4452 27.3942 49.1555 27.5055 48.9327 27.728C48.7099 27.9505 48.5911 28.1989 48.5762 28.4734ZM51.1719 29.8974L52.4086 30.2645C52.26 30.7688 51.9666 31.1842 51.5284 31.5105C51.0977 31.8369 50.5592 32 49.9131 32C49.1258 32 48.4574 31.7367 47.9078 31.2101C47.3582 30.6761 47.0834 29.9641 47.0834 29.0741C47.0834 28.2286 47.3507 27.5389 47.8855 27.0048C48.4202 26.4634 49.0515 26.1927 49.7794 26.1927C50.6261 26.1927 51.2871 26.4449 51.7624 26.9492C52.2452 27.4536 52.4865 28.147 52.4865 29.0296C52.4865 29.0889 52.4828 29.1557 52.4754 29.2299C52.4754 29.304 52.4754 29.3634 52.4754 29.4079L52.4642 29.4857H48.5428C48.5576 29.8417 48.6987 30.1384 48.9661 30.3758C49.2335 30.6131 49.5529 30.7318 49.9242 30.7318C50.5555 30.7318 50.9714 30.4536 51.1719 29.8974Z" fill="white"/>
<path d="M53.3191 30.3424C53.3191 29.8751 53.4714 29.5006 53.7759 29.2187C54.0804 28.9369 54.474 28.7589 54.9568 28.6847L56.3048 28.4845C56.5796 28.4474 56.717 28.3176 56.717 28.0951C56.717 27.8874 56.6353 27.7169 56.4719 27.5834C56.3159 27.4498 56.0894 27.3831 55.7923 27.3831C55.4804 27.3831 55.2316 27.4684 55.0459 27.639C54.8677 27.8096 54.7674 28.0209 54.7451 28.2731L53.4305 27.995C53.4825 27.5203 53.7165 27.1013 54.1324 26.7378C54.5483 26.3744 55.0979 26.1927 55.7812 26.1927C56.5982 26.1927 57.1997 26.3893 57.586 26.7823C57.9722 27.168 58.1653 27.6649 58.1653 28.2731V30.9654C58.1653 31.2917 58.1875 31.581 58.2321 31.8331H56.873C56.8358 31.67 56.8173 31.4512 56.8173 31.1768C56.4682 31.7182 55.9297 31.9889 55.2019 31.9889C54.6374 31.9889 54.1807 31.8257 53.8316 31.4994C53.4899 31.1731 53.3191 30.7874 53.3191 30.3424ZM55.5138 30.8875C55.8629 30.8875 56.1488 30.7911 56.3716 30.5983C56.6019 30.398 56.717 30.0717 56.717 29.6192V29.3745L55.4804 29.5636C55.0273 29.6304 54.8008 29.8603 54.8008 30.2534C54.8008 30.4314 54.8639 30.5834 54.9902 30.7095C55.1165 30.8282 55.291 30.8875 55.5138 30.8875Z" fill="white"/>
<path d="M63.001 26.3373V27.8281C62.8524 27.7984 62.7039 27.7836 62.5553 27.7836C62.132 27.7836 61.7903 27.906 61.5304 28.1507C61.2705 28.3881 61.1405 28.7812 61.1405 29.33V31.8331H59.6588V26.3596H61.0959V27.1717C61.3633 26.6006 61.8832 26.3151 62.6556 26.3151C62.7373 26.3151 62.8524 26.3225 63.001 26.3373Z" fill="white"/>
</svg>
