<svg width="112" height="32" viewBox="0 0 112 32" fill="none" xmlns="http://www.w3.org/2000/svg">
<path d="M89.4014 21.7891H89.3347C89.1124 21.7891 88.9345 21.878 88.7789 22.0114C88.6232 22.167 88.5565 22.3449 88.5565 22.5672V22.6117C88.5565 22.834 88.6455 23.0119 88.7789 23.1675C88.9345 23.3232 89.1124 23.3899 89.3347 23.3899H89.4014C89.6237 23.3899 89.8016 23.3009 89.9572 23.1675C90.1129 23.0119 90.1796 22.834 90.1796 22.6117V22.5672C90.1796 22.3449 90.1129 22.167 89.9572 22.0114C89.8016 21.8558 89.6237 21.7891 89.4014 21.7891Z" fill="#9D9FA2"/>
<path d="M89.3569 24.1016C89.1568 24.1016 88.979 24.1683 88.8456 24.3017C88.7122 24.4351 88.6454 24.6129 88.6454 24.813V29.7267C88.6454 29.9268 88.7122 30.1047 88.8456 30.2381C88.979 30.3715 89.1568 30.4382 89.3569 30.4382C89.557 30.4382 89.7349 30.3715 89.8683 30.2381C90.0017 30.1047 90.0684 29.9268 90.0684 29.7267V24.813C90.0684 24.6129 90.0017 24.4351 89.8683 24.3017C89.7349 24.1683 89.557 24.1016 89.3569 24.1016Z" fill="#9D9FA2"/>
<path d="M94.5374 24.0347H94.4707C93.9149 24.0347 93.3812 24.2792 92.9143 24.7461C92.8921 24.5683 92.8254 24.4349 92.7142 24.3015C92.5808 24.1681 92.3807 24.1014 92.2029 24.1014C92.025 24.1014 91.8249 24.1681 91.6915 24.3237C91.5581 24.4571 91.4914 24.635 91.4914 24.8351V29.7487C91.4914 29.9488 91.5581 30.1267 91.6915 30.2601C91.8249 30.3935 92.0028 30.4602 92.2029 30.4602C92.403 30.4602 92.5808 30.3935 92.7142 30.2601C92.8476 30.1267 92.9366 29.9488 92.9366 29.7487V26.3025C93.1145 26.0579 93.3145 25.8578 93.5813 25.7022C93.8482 25.5466 94.1372 25.4576 94.4707 25.4576H94.5374C94.7375 25.4576 94.9154 25.3909 95.0488 25.2798C95.1822 25.1464 95.2711 24.9907 95.2711 24.7684C95.2711 24.5683 95.2044 24.3904 95.071 24.257C94.9154 24.1236 94.7375 24.0347 94.5374 24.0347Z" fill="#9D9FA2"/>
<path d="M103.209 21.6338C103.008 21.6338 102.831 21.7005 102.697 21.8339C102.564 21.9673 102.497 22.1452 102.497 22.3453V29.7491C102.497 29.9492 102.564 30.127 102.697 30.2604C102.831 30.3938 103.008 30.4606 103.209 30.4606C103.409 30.4606 103.587 30.3938 103.72 30.2604C103.853 30.127 103.92 29.9492 103.92 29.7491V22.3453C103.92 22.1452 103.853 21.9673 103.72 21.8339C103.587 21.7005 103.409 21.6338 103.209 21.6338Z" fill="#9D9FA2"/>
<path d="M110.546 28.8372C110.412 28.7038 110.279 28.6593 110.101 28.6593C109.968 28.6593 109.812 28.7038 109.656 28.7927C109.278 28.9706 108.811 29.0595 108.278 29.0595C107.744 29.0595 107.322 28.9261 107.033 28.6593C106.788 28.437 106.633 28.148 106.566 27.7922H110.212C110.434 27.7922 110.612 27.7255 110.746 27.5699C110.879 27.4365 110.946 27.2586 110.946 27.0585C110.946 26.2136 110.701 25.4799 110.19 24.9019C109.656 24.2793 108.9 23.9458 107.989 23.9458C107.01 23.9458 106.255 24.3015 105.721 24.9686C105.254 25.5689 105.009 26.3248 105.009 27.1919C105.009 28.2147 105.298 29.0373 105.854 29.5931C106.41 30.1712 107.211 30.4603 108.211 30.4603C108.678 30.4603 109.1 30.4158 109.478 30.3046C109.634 30.2602 109.79 30.1935 109.923 30.1268C110.056 30.0601 110.212 29.9934 110.368 29.9044C110.612 29.771 110.724 29.5709 110.724 29.2819C110.768 29.1262 110.701 28.9706 110.546 28.8372ZM106.699 26.058C106.966 25.5244 107.411 25.2576 108.011 25.2576C108.389 25.2576 108.7 25.3688 108.967 25.5911C109.234 25.8134 109.412 26.1247 109.478 26.5027H106.566C106.588 26.347 106.633 26.1914 106.699 26.058Z" fill="#9D9FA2"/>
<path d="M99.8957 30.2823C99.9179 30.2823 99.9402 30.26 99.9402 30.26C99.9179 30.2823 99.8957 30.2823 99.8957 30.2823C99.9179 30.2823 99.9402 30.26 99.9402 30.26L99.9624 30.2378H99.9402C99.9402 30.2823 99.9179 30.2823 99.8957 30.2823Z" fill="#9D9FA2"/>
<path d="M101.541 28.0148C101.519 27.9703 101.497 27.9481 101.452 27.9036C101.319 27.7702 101.163 27.7035 100.985 27.7035C100.963 27.7035 100.941 27.7035 100.918 27.7035C100.874 27.7035 100.852 27.7035 100.807 27.7257C100.696 27.748 100.585 27.8147 100.518 27.9036C100.496 27.9259 100.496 27.9481 100.474 27.9481C100.429 27.9926 100.407 28.0148 100.385 28.0593C100.296 28.2149 100.185 28.3705 100.051 28.5262C99.8735 28.704 99.6512 28.8597 99.4288 28.9486C99.4066 28.9486 99.3844 28.9708 99.3844 28.9708H99.3621C99.1398 29.0598 98.9175 29.082 98.6951 29.082C98.4728 29.082 98.2505 29.0375 98.0504 28.9708C98.0281 28.9708 98.0281 28.9486 98.0059 28.9486C97.7613 28.8597 97.539 28.7263 97.3389 28.5262C97.0498 28.2594 96.872 27.9259 96.8053 27.5701C96.6719 26.9698 96.8497 26.3028 97.3166 25.8359C97.45 25.7025 97.5834 25.5913 97.7613 25.5024C97.7835 25.4801 97.8058 25.4801 97.828 25.4801C98.0948 25.3467 98.4061 25.28 98.6951 25.28C99.1843 25.28 99.6734 25.4579 100.029 25.8359C100.14 25.9471 100.229 26.0582 100.318 26.1916C100.34 26.2583 100.407 26.325 100.452 26.3917C100.585 26.5251 100.763 26.5918 100.918 26.5918C101.096 26.5918 101.274 26.5251 101.408 26.3917C101.63 26.1694 101.652 25.8137 101.497 25.5691C101.363 25.3245 101.185 25.1022 100.963 24.9021C100.34 24.2795 99.4955 23.9683 98.6729 23.9683C98.1615 23.9683 97.6501 24.0794 97.1832 24.324L97.161 24.3462C97.1388 24.3462 97.1165 24.3685 97.0943 24.3685C96.8275 24.5241 96.5607 24.702 96.3384 24.9465C95.7158 25.5913 95.4045 26.414 95.4045 27.2366C95.4045 27.4589 95.4268 27.6591 95.4712 27.8814V27.9036C95.4712 27.9481 95.4935 27.9703 95.4935 28.0148V28.037C95.6269 28.6151 95.9382 29.1487 96.3828 29.5711C96.7163 29.8824 97.0721 30.127 97.4945 30.2826H97.5167C97.539 30.3049 97.5834 30.3049 97.6057 30.3271H97.6279C97.9614 30.4383 98.3172 30.505 98.6729 30.505C99.0509 30.505 99.4511 30.4383 99.8068 30.3049H99.829H99.8513C99.8735 30.2826 99.8957 30.2826 99.918 30.2826H99.9402C100.318 30.127 100.674 29.8824 100.963 29.5711C101.119 29.4155 101.274 29.2376 101.385 29.0375C101.408 28.9931 101.452 28.9486 101.474 28.9041C101.497 28.8819 101.497 28.8597 101.519 28.8374C101.563 28.7707 101.586 28.7263 101.608 28.6596C101.608 28.6373 101.608 28.6373 101.63 28.6151C101.63 28.5929 101.63 28.5706 101.63 28.5706C101.652 28.4595 101.63 28.3261 101.585 28.2149C101.585 28.1037 101.563 28.0593 101.541 28.0148ZM96.8275 27.7035V27.6813V27.7035Z" fill="#9D9FA2"/>
<path d="M83.1315 22.9231C83.1315 23.1232 83.0871 23.3233 82.9759 23.5012C83.176 23.4567 83.3761 23.4345 83.5985 23.4345C84.2655 23.4345 84.9102 23.6791 85.4216 24.1682C85.5772 24.3238 85.7107 24.4795 85.7996 24.6573C85.8441 24.7463 85.9108 24.8352 85.9775 24.9241C86.1553 25.102 86.3777 25.1909 86.6222 25.1909C86.8668 25.1909 87.0891 25.102 87.267 24.9241C87.5783 24.6129 87.6005 24.146 87.4004 23.7902C87.2003 23.4567 86.978 23.1677 86.6889 22.8786C85.8218 22.0338 84.7101 21.6113 83.5985 21.6113C83.1538 21.6113 82.7313 21.678 82.3089 21.8114C82.4868 21.8781 82.6424 21.9671 82.7758 22.1005C82.9982 22.3228 83.1315 22.6118 83.1315 22.9231Z" fill="#9D9FA2"/>
<path d="M79.3073 25.9691C79.5297 25.7467 79.841 25.6133 80.1522 25.6133C80.4635 25.6133 80.7525 25.7245 80.9749 25.9468C80.9749 25.9468 80.9749 25.9468 80.9749 25.9246C80.9749 25.9024 80.9749 25.8801 80.9749 25.8579C80.9749 25.8357 80.9749 25.8134 80.9749 25.769C80.9749 25.7467 80.9749 25.7023 80.9749 25.68C80.9749 25.6578 80.9749 25.6356 80.9749 25.6133V25.5911C80.9749 25.5466 80.9971 25.5244 80.9971 25.4799C80.9971 25.4577 80.9971 25.4355 81.0193 25.391C81.0193 25.3688 81.0416 25.3465 81.0416 25.3243C81.0416 25.3021 81.0416 25.3021 81.0638 25.2798C81.0638 25.2576 81.086 25.2354 81.086 25.2131C81.086 25.1909 81.1083 25.1687 81.1083 25.1242C81.1305 25.0797 81.1305 25.0575 81.1527 25.013C81.175 24.9686 81.175 24.9463 81.1972 24.9019C81.2417 24.7907 81.3084 24.7018 81.3751 24.5906C81.3973 24.5461 81.4195 24.5239 81.4418 24.4794C81.5085 24.3683 81.5974 24.2793 81.6863 24.1682C81.7308 24.1237 81.753 24.1015 81.7975 24.057C81.8197 24.0348 81.842 24.0125 81.8864 23.9903C81.9309 23.9458 81.9754 23.9236 82.0198 23.8791C82.0421 23.8569 82.0865 23.8346 82.1088 23.8124C82.1532 23.7902 82.1977 23.7457 82.2644 23.7235C82.2867 23.7012 82.3089 23.7013 82.3311 23.679C82.3978 23.6345 82.4423 23.5901 82.509 23.5456C82.8647 23.1899 82.8647 22.6118 82.509 22.2561C82.3311 22.0782 82.1088 21.9893 81.8642 21.9893C81.7308 21.9893 81.5974 22.0115 81.4862 22.0782C81.464 22.1004 81.4418 22.1004 81.3973 22.1227C81.3528 22.1449 81.2861 22.1894 81.2417 22.2116C81.1305 22.2783 81.0193 22.345 80.9304 22.4117C80.8859 22.4562 80.8415 22.4784 80.797 22.5229C80.7525 22.5451 80.7303 22.5673 80.6858 22.6118C80.6414 22.634 80.6191 22.6785 80.5747 22.7007C80.508 22.7674 80.4413 22.8341 80.3746 22.9008C80.2856 22.9898 80.2189 23.0787 80.1522 23.1454C80.0411 23.2788 79.9299 23.4344 79.8187 23.5901C79.6631 23.8346 79.5297 24.0792 79.4185 24.346C79.2629 24.7462 79.1517 25.1464 79.1295 25.5689C79.1072 25.7467 79.1072 25.9246 79.1072 26.1025C79.2184 26.0803 79.2629 26.0135 79.3073 25.9691Z" fill="#9D9FA2"/>
<path d="M81.5307 28.5037C81.6863 28.348 81.8864 28.2369 82.1088 28.1702C82.0865 28.1479 82.0643 28.1479 82.0421 28.1257C82.0198 28.1035 81.9976 28.0812 81.9531 28.059C81.9309 28.0368 81.9087 28.0368 81.8864 28.0145C81.8642 27.9923 81.8642 27.9923 81.842 27.9701C81.8197 27.9478 81.7753 27.9256 81.753 27.8811C81.7308 27.8589 81.7086 27.8367 81.6863 27.8144C81.6641 27.7922 81.6418 27.77 81.6418 27.7477C81.6196 27.7033 81.5752 27.681 81.5529 27.6366C81.5307 27.5921 81.5085 27.5699 81.464 27.5254C81.3973 27.4365 81.3528 27.3475 81.3083 27.2586C81.2861 27.2141 81.2639 27.1697 81.2416 27.1474V27.1252C81.2194 27.103 81.2194 27.0585 81.1972 27.014C81.1972 26.9918 81.1749 26.9918 81.1749 26.9696C81.1749 26.9696 81.175 26.9473 81.1527 26.9473C81.1527 26.9251 81.1305 26.8806 81.1305 26.8584C81.1305 26.8584 81.1305 26.8584 81.1305 26.8362C81.1082 26.7695 81.086 26.7028 81.0638 26.6361V26.6138V26.5916C81.0193 26.4359 80.9526 26.2803 80.8192 26.1691C80.6413 25.9913 80.419 25.9023 80.1744 25.9023C79.9299 25.9023 79.7075 25.9913 79.5297 26.1691C79.3295 26.3692 79.2406 26.6583 79.2851 26.9251V26.9473C79.2851 26.9918 79.3073 27.0585 79.3296 27.103V27.1252V27.1474C79.3296 27.1474 79.3295 27.1252 79.3073 27.103C79.3073 27.1252 79.3296 27.1474 79.3296 27.1697C79.3518 27.2141 79.3518 27.2586 79.374 27.3031C79.3963 27.3475 79.3962 27.392 79.4185 27.4365C79.4407 27.4809 79.4407 27.5254 79.463 27.5699C79.463 27.5921 79.4852 27.6366 79.5074 27.6588C79.5297 27.7033 79.5519 27.7477 79.5519 27.7922C79.5741 27.8367 79.5741 27.8589 79.5964 27.9034C79.6186 27.9256 79.6186 27.9701 79.6408 27.9923C79.6408 27.9923 79.6408 27.9923 79.6408 28.0145C79.6408 28.0145 79.6408 28.0145 79.6408 28.0368C79.6631 28.059 79.6631 28.1035 79.6853 28.1257C79.7298 28.1924 79.7742 28.2591 79.7965 28.348C79.8187 28.3703 79.8187 28.3925 79.8409 28.4147C79.8632 28.4592 79.9076 28.5037 79.9299 28.5481C79.9521 28.5704 79.9743 28.5926 79.9966 28.6371C80.041 28.6815 80.0633 28.726 80.1077 28.7927C80.13 28.8372 80.1744 28.8817 80.1967 28.9039C80.2189 28.9484 80.2634 28.9706 80.2856 29.0151C80.3078 29.0373 80.3301 29.0595 80.3523 29.104C80.3968 29.1485 80.419 29.1707 80.4635 29.2152C80.5079 29.2596 80.5524 29.3041 80.6191 29.3486C80.6191 29.3486 80.6191 29.3486 80.6413 29.3708L80.6636 29.393C80.708 29.4375 80.7303 29.4597 80.7747 29.482C80.797 29.5042 80.8192 29.5264 80.8637 29.5487C80.9081 29.5931 80.9526 29.6154 81.0193 29.6598C81.0638 29.7043 81.1082 29.7265 81.1749 29.771C81.2194 29.7932 81.2639 29.8377 81.3083 29.8599C81.2416 29.7043 81.1972 29.5487 81.1972 29.393C81.1972 29.0151 81.3083 28.726 81.5307 28.5037Z" fill="#9D9FA2"/>
<path d="M83.9319 28.6151C83.8208 28.6373 83.7096 28.6373 83.5984 28.6373C83.5317 28.6373 83.4873 28.6373 83.4428 28.6373C83.3983 28.6373 83.3538 28.6373 83.3094 28.6373C83.2204 28.6373 83.1093 28.6151 83.0203 28.5929C82.9759 28.5929 82.9536 28.5706 82.9092 28.5706C82.8647 28.5484 82.798 28.5484 82.7535 28.5262H82.7313L82.6868 28.5039C82.5979 28.4595 82.4867 28.4595 82.3756 28.4595C82.131 28.4595 81.9087 28.5484 81.7308 28.7263C81.3751 29.082 81.3751 29.6601 81.7308 30.0158C81.7975 30.0825 81.8642 30.127 81.9531 30.1715H81.9754C82.0421 30.1937 82.0865 30.2159 82.1532 30.2382H82.131C82.1532 30.2382 82.1755 30.2604 82.1977 30.2604H82.1755C82.1977 30.2604 82.2199 30.2826 82.2199 30.2826C82.2866 30.3049 82.3311 30.3271 82.3978 30.3271C82.4423 30.3493 82.509 30.3493 82.5534 30.3716C82.7758 30.4383 83.0203 30.4605 83.2427 30.4827C83.3538 30.4827 83.465 30.505 83.5984 30.505C83.8875 30.505 84.1543 30.4827 84.4433 30.416C84.3099 30.3493 84.1987 30.2826 84.0876 30.1715C83.6429 29.7268 83.5984 29.082 83.9319 28.6151Z" fill="#9D9FA2"/>
<path d="M87.5782 27.3921C87.5782 27.3476 87.556 27.3254 87.5338 27.2809C87.4893 27.1698 87.4226 27.0808 87.3337 26.9919C87.1558 26.814 86.9335 26.7251 86.6889 26.7251H86.6667C86.6444 26.7251 86.6222 26.7251 86.6 26.7251C86.5777 26.7251 86.5777 26.7251 86.5555 26.7251C86.511 26.7251 86.4666 26.7473 86.4221 26.7473C86.3999 26.7473 86.3554 26.7696 86.3332 26.7696C86.2887 26.7918 86.222 26.814 86.1775 26.8585C86.1331 26.903 86.0664 26.9252 86.0219 26.9919C85.9552 27.0586 85.9107 27.1253 85.8662 27.2142C85.7773 27.3921 85.6439 27.57 85.5105 27.7256C85.4883 27.7701 85.4438 27.7923 85.4216 27.8368C85.2215 28.0591 84.9769 28.2148 84.7101 28.3482C84.6656 28.3704 84.6212 28.3926 84.5545 28.4149C84.51 28.4371 84.4878 28.4371 84.4655 28.4593C84.3766 28.5038 84.2877 28.5705 84.221 28.6372C83.8652 28.9929 83.8652 29.571 84.221 29.9267C84.3988 30.1046 84.6212 30.1935 84.8657 30.1935C84.9547 30.1935 85.0436 30.1713 85.1325 30.1491C85.177 30.1268 85.2215 30.1268 85.2437 30.1046L85.266 30.0824H85.2882C85.3771 30.0601 85.4438 30.0157 85.5105 29.9712C85.933 29.7711 86.3332 29.4821 86.6667 29.1263C86.7778 29.0152 86.889 28.8818 86.9779 28.7706C87.0669 28.6594 87.1558 28.526 87.2225 28.4149C87.267 28.3482 87.2892 28.3037 87.3337 28.237C87.3559 28.1925 87.3781 28.1703 87.4004 28.1258C87.4226 28.0814 87.4448 28.0369 87.4671 27.9702C87.4671 27.948 87.4671 27.9479 87.4893 27.9257C87.4893 27.9035 87.4893 27.9035 87.5115 27.8813C87.5115 27.859 87.5338 27.8368 87.5338 27.8145C87.5338 27.8145 87.5338 27.7923 87.5338 27.7701C87.5338 27.7478 87.5338 27.7478 87.5338 27.7256C87.5338 27.7034 87.5338 27.7034 87.5338 27.6811C87.5338 27.6367 87.5338 27.5922 87.5338 27.5255C87.6227 27.5033 87.6005 27.4366 87.5782 27.3921Z" fill="#9D9FA2"/>
<path d="M72.5039 26.9476C72.8819 27.3478 73.082 27.837 73.082 28.4373C73.082 29.0153 72.8819 29.5267 72.5039 29.9269C72.1259 30.3271 71.6812 30.5272 71.1476 30.5272C70.5918 30.5272 70.1693 30.3271 69.8581 29.9492V30.4161H68.8353V24.8799H69.8581V26.9254C70.1693 26.5474 70.5918 26.3473 71.1476 26.3473C71.6812 26.3473 72.1259 26.5474 72.5039 26.9476ZM70.9475 29.549C71.2588 29.549 71.5256 29.4378 71.7257 29.2377C71.948 29.0153 72.037 28.7485 72.037 28.4373C72.037 28.126 71.9258 27.837 71.7257 27.6369C71.5256 27.4145 71.2588 27.3256 70.9475 27.3256C70.6363 27.3256 70.3694 27.4368 70.1693 27.6369C69.9692 27.837 69.8581 28.1038 69.8581 28.4373C69.8581 28.7708 69.9692 29.0376 70.1693 29.2377C70.3694 29.4378 70.6363 29.549 70.9475 29.549Z" fill="#9D9FA2"/>
<path d="M75.9723 26.4585H77.0617L75.6165 30.4161C75.1941 31.55 74.5493 32.0614 73.5266 31.9947V31.0386C74.0824 31.0386 74.3714 30.8163 74.5715 30.2827L72.9485 26.4585H74.0602L75.0829 29.1265L75.9723 26.4585Z" fill="#9D9FA2"/>
<path d="M0 9.20469C0 4.22436 3.69079 0.37793 8.82677 0.37793C11.9395 0.37793 14.6742 1.95652 16.1416 4.37999L13.2513 6.04751C12.4286 4.53562 10.7833 3.62405 8.82677 3.62405C5.49172 3.62405 3.31282 5.93635 3.31282 9.20469C3.31282 12.4508 5.49172 14.7631 8.82677 14.7631C10.7611 14.7631 12.4509 13.8515 13.2513 12.3619L16.1416 14.0294C14.7187 16.4529 11.9617 18.0315 8.82677 18.0315C3.69079 18.0537 0 14.1628 0 9.20469Z" fill="#9C9EA1"/>
<path d="M17.3867 11.6504C17.3867 8.02628 20.2326 5.24707 23.79 5.24707C27.3696 5.24707 30.2155 8.04851 30.2155 11.6504C30.2155 15.2745 27.3474 18.0537 23.79 18.0537C20.2326 18.0537 17.3867 15.2522 17.3867 11.6504ZM27.1028 11.6504C27.1028 9.6938 25.6799 8.29308 23.79 8.29308C21.9446 8.29308 20.5217 9.67157 20.5217 11.6504C20.5217 13.6069 21.9446 15.0076 23.79 15.0076C25.6799 14.9854 27.1028 13.6069 27.1028 11.6504Z" fill="#9C9EA1"/>
<path d="M32.3278 0H35.4627V17.7202H32.3278V0Z" fill="#9C9EA1"/>
<path d="M37.5749 11.6504C37.5749 8.02628 40.4208 5.24707 43.9782 5.24707C47.5578 5.24707 50.4037 8.04851 50.4037 11.6504C50.4037 15.2745 47.5356 18.0537 43.9782 18.0537C40.3986 18.0537 37.5749 15.2522 37.5749 11.6504ZM47.2688 11.6504C47.2688 9.6938 45.8458 8.29308 43.956 8.29308C42.1106 8.29308 40.6876 9.67157 40.6876 11.6504C40.6876 13.6069 42.1106 15.0076 43.956 15.0076C45.8458 14.9854 47.2688 13.6069 47.2688 11.6504Z" fill="#9C9EA1"/>
<path d="M51.8712 9.20469C51.8712 4.22436 55.5619 0.37793 60.6979 0.37793C63.8106 0.37793 66.5454 1.95652 68.0128 4.37999L65.1224 6.04751C64.2998 4.53562 62.6545 3.62405 60.6979 3.62405C57.3629 3.62405 55.184 5.93635 55.184 9.20469C55.184 12.4508 57.3629 14.7631 60.6979 14.7631C62.6322 14.7631 64.322 13.8515 65.1224 12.3619L68.0128 14.0294C66.5898 16.4529 63.8329 18.0315 60.6979 18.0315C55.5619 18.0537 51.8712 14.1628 51.8712 9.20469Z" fill="#09A3AE"/>
<path d="M70.0138 0H73.1487V17.7202H70.0138V0Z" fill="#09A3AE"/>
<path d="M81.9533 15.2078C83.1761 15.2078 84.1322 14.6964 84.6658 13.9849L87.2004 15.4523C86.0665 17.0976 84.2433 18.0537 81.9088 18.0537C77.84 18.0537 75.2609 15.2522 75.2609 11.6504C75.2609 8.02628 77.8623 5.24707 81.6642 5.24707C85.2661 5.24707 87.8007 8.09298 87.8007 11.6504C87.8007 12.1173 87.7562 12.5175 87.6895 12.9399H78.5293C78.9517 14.5407 80.308 15.2078 81.9533 15.2078ZM84.6658 10.4942C84.2878 8.73775 82.976 8.04851 81.6642 8.04851C79.9967 8.04851 78.8406 8.93786 78.4848 10.4942H84.6658Z" fill="#09A3AE"/>
<path d="M102.119 5.5808V17.7204H98.9843V16.2974C98.1172 17.3869 96.8054 18.0761 95.0267 18.0761C91.8028 18.0761 89.1348 15.2747 89.1348 11.6728C89.1348 8.04874 91.8028 5.26953 95.0267 5.26953C96.8054 5.26953 98.1172 5.95877 98.9843 7.04822V5.62527H102.119V5.5808ZM98.9843 11.6506C98.9843 9.6051 97.5613 8.22661 95.6048 8.22661C93.6927 8.22661 92.2475 9.6051 92.2475 11.6506C92.2475 13.6961 93.6704 15.0746 95.6048 15.0746C97.5613 15.0746 98.9843 13.6739 98.9843 11.6506Z" fill="#09A3AE"/>
<path d="M111.168 5.33594V8.82662C109.545 8.62652 107.478 9.36023 107.478 11.9171V17.7201H104.343V5.58051H107.478V7.67048C108.122 6.00295 109.656 5.33594 111.168 5.33594Z" fill="#09A3AE"/>
</svg>
