<svg width="120" height="52" viewBox="0 0 120 52" fill="none" xmlns="http://www.w3.org/2000/svg">
<path d="M38.4856 0.664062H38.2326C37.4201 0.664062 36.7302 0.95715 36.1476 1.54333C35.5804 2.11408 35.2891 2.82366 35.2891 3.64122V3.8109C35.2891 4.61304 35.5804 5.32262 36.1476 5.89337C36.7302 6.47183 37.4201 6.77263 38.2326 6.77263H38.4856C39.2981 6.77263 40.0033 6.47183 40.5706 5.89337C41.1455 5.32262 41.4367 4.61304 41.4367 3.8109V3.64122C41.4367 2.82366 41.1531 2.11408 40.5706 1.54333C39.9956 0.964863 39.2904 0.664062 38.4856 0.664062Z" fill="#09A3AE"/>
<path d="M38.3308 9.40234C37.5719 9.40234 36.9126 9.68001 36.3914 10.1891C35.8778 10.7135 35.6172 11.3768 35.6172 12.1558V30.7746C35.6172 31.5228 35.8778 32.1707 36.3914 32.6874C36.905 33.2042 37.5719 33.4819 38.3308 33.4819C39.0973 33.4819 39.7489 33.2196 40.2701 32.6874C40.7837 32.1707 41.052 31.5228 41.052 30.7746V12.1558C41.052 11.3691 40.7914 10.7135 40.2701 10.1891C39.7565 9.66458 39.105 9.40234 38.3308 9.40234Z" fill="#09A3AE"/>
<path d="M57.8339 9.18555H57.6193C55.496 9.18555 53.526 10.0802 51.7476 11.8619C51.6863 11.2294 51.4103 10.6664 50.958 10.2036C50.4368 9.67917 49.7316 9.41693 49.0264 9.41693C48.3135 9.41693 47.6083 9.68688 47.0947 10.2191C46.5887 10.759 46.3281 11.4068 46.3281 12.155V30.7738C46.3281 31.5219 46.5888 32.1698 47.11 32.6866C47.6389 33.2188 48.2751 33.481 49.0264 33.481C49.7699 33.481 50.4138 33.2188 50.9504 32.6943C51.4793 32.1852 51.7629 31.5219 51.7629 30.7661V17.7314C52.4145 16.8135 53.2117 16.0346 54.1622 15.4561C55.151 14.8391 56.2855 14.5228 57.5427 14.5228H57.7573C58.5162 14.5228 59.1677 14.2914 59.6813 13.8364C60.2102 13.3582 60.4938 12.7026 60.4938 11.9236C60.4938 11.16 60.2409 10.5122 59.7503 9.98768C59.2291 9.46321 58.5775 9.18555 57.8339 9.18555Z" fill="#09A3AE"/>
<path d="M90.3892 0.046875C89.6763 0.046875 88.9711 0.301399 88.4575 0.818159C87.9286 1.33492 87.668 2.00594 87.668 2.78493V30.7903C87.668 31.5384 87.9286 32.1863 88.4575 32.7031C88.9634 33.2198 89.638 33.4975 90.3892 33.4975C91.1404 33.4975 91.8073 33.2198 92.3132 32.7031C92.8421 32.1863 93.1028 31.5384 93.1028 30.7903V2.78493C93.1028 1.99822 92.8421 1.34263 92.3132 0.818159C91.8073 0.301399 91.1021 0.046875 90.3892 0.046875Z" fill="#09A3AE"/>
<path d="M117.99 27.3505C117.491 26.88 116.955 26.6563 116.357 26.6563C115.851 26.6563 115.291 26.8183 114.67 27.1345C113.283 27.8287 111.535 28.1835 109.45 28.1835C107.45 28.1835 105.893 27.6667 104.813 26.664C103.908 25.8079 103.31 24.7281 103.019 23.3629H116.709C117.537 23.3629 118.227 23.093 118.741 22.5531C119.247 22.0209 119.507 21.3653 119.507 20.594C119.507 17.3623 118.564 14.6166 116.679 12.4107C114.647 10.0351 111.865 8.82422 108.423 8.82422C104.774 8.82422 101.915 10.1354 99.9144 12.7038C98.1667 14.9482 97.2852 17.802 97.2852 21.1571C97.2852 25.052 98.3507 28.1063 100.451 30.2582C102.559 32.4101 105.533 33.4976 109.282 33.4976C111.045 33.4976 112.631 33.2894 114.011 32.896C114.624 32.7109 115.207 32.4949 115.721 32.2481C116.226 32.009 116.794 31.7159 117.43 31.3843C118.311 30.9138 118.787 30.0962 118.787 29.0396C118.771 28.3994 118.503 27.8132 117.99 27.3505ZM103.509 16.7916C104.552 14.7785 106.154 13.799 108.415 13.799C109.841 13.799 111.022 14.2232 112.033 15.087C113.053 15.9663 113.674 17.1001 113.911 18.527H102.942C103.057 17.8714 103.241 17.3006 103.509 16.7916Z" fill="#09A3AE"/>
<path d="M77.9247 32.8109C77.9937 32.7801 78.0627 32.7569 78.1317 32.7184C78.0397 32.7569 77.9554 32.7955 77.8711 32.834L77.9017 32.8186H77.9094C77.9171 32.8186 77.9171 32.8186 77.9247 32.8109C77.9861 32.7878 78.0627 32.7569 78.1317 32.7261L78.193 32.6875L78.1317 32.7184C78.0704 32.7569 77.9937 32.7878 77.9247 32.8109Z" fill="#09A3AE"/>
<path d="M61.5352 24.4335L61.5429 24.4413L61.5352 24.418V24.4335Z" fill="#09A3AE"/>
<path d="M84.1332 24.233C84.0412 24.0865 83.9339 23.9554 83.8112 23.832C83.3207 23.346 82.6844 23.1069 82.0482 23.1069C81.9485 23.1069 81.8566 23.1147 81.7569 23.1224C81.6343 23.1378 81.4963 23.1532 81.366 23.1995C80.952 23.3152 80.5688 23.5389 80.2391 23.8705C80.1778 23.9322 80.1242 23.9939 80.0705 24.0633C79.9479 24.2022 79.8482 24.3487 79.7639 24.5107C79.4343 25.1354 79.0127 25.7216 78.5144 26.2384C77.8169 26.9479 77.0197 27.4878 76.1611 27.8503C76.0921 27.8735 76.0232 27.9043 75.9618 27.9352L75.9082 27.9583C75.111 28.2668 74.2601 28.4134 73.4092 28.4134C72.5967 28.4134 71.7765 28.2746 71.0023 28.0046L70.9793 27.9969C70.9256 27.9738 70.872 27.9583 70.8337 27.9352C69.9291 27.5958 69.0783 27.0636 68.35 26.3386C67.2999 25.3128 66.633 24.0325 66.3647 22.6827C65.8818 20.3843 66.5103 17.8854 68.2657 16.096C68.764 15.5869 69.3082 15.1781 69.8985 14.8465C69.9751 14.8079 70.0441 14.7617 70.1208 14.7308L70.1284 14.7231C71.1479 14.1986 72.2748 13.9364 73.4016 13.9364C75.2183 13.9364 77.0427 14.6305 78.4454 16.0188C78.867 16.4276 79.2273 16.8981 79.5339 17.384C79.6489 17.6463 79.8252 17.9008 80.0475 18.1167C80.5381 18.6104 81.182 18.8495 81.8182 18.8495C82.4775 18.8495 83.129 18.5949 83.6273 18.0859C84.4705 17.2298 84.5855 15.9263 83.9722 14.9545L83.9646 14.9313C83.4356 14.0212 82.7764 13.1728 81.9945 12.4015C79.6182 10.0414 76.5137 8.86133 73.4092 8.86133C71.4929 8.86133 69.5765 9.30867 67.8365 10.2111L67.7368 10.2574C67.6602 10.2882 67.5912 10.3345 67.5145 10.373C66.495 10.9361 65.5215 11.6611 64.663 12.5404C62.3173 14.9391 61.1445 18.0705 61.1445 21.2019C61.1445 22.0194 61.2289 22.8293 61.3898 23.6391L61.3975 23.6777C61.4282 23.8165 61.4588 23.9631 61.4895 24.1019L61.5048 24.1482C62.0337 26.2924 63.1375 28.3208 64.8086 29.9791C66.0274 31.1823 67.4379 32.0847 68.9556 32.6786L69.0093 32.7017H69.0246C69.1319 32.7403 69.2469 32.7866 69.3619 32.8251L69.4462 32.856L69.4769 32.8637C70.7493 33.2956 72.0755 33.5116 73.4016 33.5116C74.858 33.5116 76.3221 33.2493 77.7019 32.7403L77.7785 32.7094L77.8015 32.7017L77.9012 32.6709C77.9855 32.6323 78.0698 32.5937 78.1618 32.5552L78.2231 32.5243L78.2538 32.5166C79.6642 31.8996 80.9904 31.0126 82.1325 29.8403C82.7457 29.2232 83.2823 28.5445 83.7193 27.8349C83.8266 27.6652 83.9262 27.4956 84.0259 27.3259C84.0795 27.241 84.1332 27.1562 84.1639 27.0636C84.3018 26.8477 84.4015 26.6317 84.4705 26.3926C84.4935 26.3386 84.5011 26.2846 84.5088 26.2384C84.5318 26.1767 84.5395 26.1072 84.5395 26.0455C84.6161 25.5982 84.5625 25.1354 84.3862 24.7112C84.3018 24.5184 84.2252 24.3719 84.1332 24.233ZM61.5355 24.2253V24.2176L61.5431 24.2407L61.5355 24.2253ZM66.426 23.0761C66.426 23.0761 66.426 23.0761 66.4184 23.0684L66.403 22.9913L66.4184 23.0221C66.426 23.0607 66.426 23.0761 66.426 23.0761Z" fill="#09A3AE"/>
<path d="M14.8898 4.97478C14.8975 5.75378 14.7058 6.50964 14.3379 7.18066C15.0968 6.99555 15.871 6.903 16.6452 6.903C19.1211 6.903 21.5971 7.83625 23.4981 9.71818C24.0653 10.2889 24.5559 10.906 24.9622 11.5693C25.1308 11.9318 25.3608 12.2711 25.6674 12.5719C26.3343 13.2352 27.2005 13.5592 28.0744 13.5592C28.9636 13.5592 29.8527 13.2121 30.5273 12.5257C31.6695 11.361 31.8228 9.58707 30.9949 8.26046L30.9872 8.24503C30.2667 7.01098 29.3775 5.85405 28.3197 4.79739C25.0848 1.59656 20.8765 0 16.6682 0C15.0201 0 13.372 0.239098 11.793 0.725007C12.4599 0.933254 13.0654 1.30347 13.579 1.81252C14.4069 2.66093 14.8821 3.77929 14.8898 4.97478Z" fill="#09A3AE"/>
<path d="M0.579507 16.4752C1.42271 15.6114 2.55719 15.1332 3.76066 15.1332C4.93348 15.1332 6.0373 15.5883 6.8805 16.4135C6.8805 16.3981 6.8805 16.375 6.88816 16.3595C6.88816 16.267 6.89583 16.1667 6.90349 16.0742C6.91116 15.9739 6.91116 15.8813 6.91883 15.7734C6.92649 15.6577 6.94182 15.5266 6.95715 15.4032C6.97248 15.3106 6.98015 15.2258 6.99548 15.1332C7.00315 15.1101 7.00314 15.0792 7.01081 15.0484C7.02614 14.9095 7.06447 14.7784 7.09513 14.6396C7.11813 14.5393 7.13346 14.439 7.16412 14.3388C7.18711 14.2385 7.21011 14.146 7.23311 14.0534C7.24844 13.9917 7.26377 13.9454 7.2791 13.8914C7.3021 13.8066 7.33276 13.7217 7.36342 13.6369C7.39408 13.5366 7.42474 13.4364 7.46307 13.3361C7.50906 13.1973 7.56272 13.0507 7.62404 12.9119C7.6777 12.7808 7.73136 12.6574 7.79268 12.5263C7.97666 12.1252 8.19129 11.7395 8.43658 11.3616C8.5209 11.2305 8.61289 11.0917 8.70487 10.9606C8.98849 10.5595 9.31044 10.1893 9.65539 9.82676C9.7857 9.69564 9.91601 9.56453 10.054 9.44112C10.1536 9.34857 10.261 9.26373 10.3606 9.17117C10.5369 9.02463 10.7132 8.8858 10.8972 8.75468C11.0198 8.66212 11.1425 8.57728 11.2728 8.49244C11.2805 8.48473 11.2958 8.48473 11.3111 8.4693C11.4874 8.35361 11.6714 8.23792 11.863 8.13765L11.8707 8.12994H11.8784C11.9627 8.07595 12.0547 8.02196 12.1467 7.98339C12.1543 7.97568 12.162 7.97568 12.1697 7.97568L12.1773 7.96797L12.2003 7.96026C12.4303 7.81371 12.6526 7.64403 12.8519 7.44349C14.1857 6.07832 14.1627 3.89559 12.8135 2.55355C12.1467 1.89025 11.2728 1.55859 10.4066 1.55859C9.90068 1.55859 9.41009 1.66657 8.9425 1.88253L8.93483 1.89025C8.83518 1.94424 8.73553 1.99051 8.63588 2.05222C8.44425 2.1602 8.23728 2.27589 8.05331 2.39158C7.64704 2.63068 7.24844 2.90063 6.8575 3.186C6.6812 3.31712 6.50489 3.44824 6.32859 3.58707C6.19827 3.68734 6.06796 3.79532 5.93765 3.9033C5.79967 4.01899 5.66936 4.12697 5.53905 4.25038C5.27076 4.48948 5.0178 4.72857 4.76484 4.99081C4.45822 5.29932 4.1746 5.62326 3.89098 5.95492C3.44638 6.47939 3.04011 7.03471 2.67217 7.59775C2.08193 8.51558 1.58368 9.47969 1.19274 10.4669C0.602503 11.9632 0.226897 13.5212 0.0735878 15.1101C0.0122643 15.7811 -0.0107316 16.4521 0.00459931 17.1308V17.1463C0.196235 16.9072 0.380206 16.6835 0.579507 16.4752Z" fill="#09A3AE"/>
<path d="M8.93662 26.0616C9.54986 25.4291 10.3087 25.0126 11.1366 24.8275C11.1289 24.8198 11.1136 24.8121 11.1059 24.8044C11.037 24.7504 10.9603 24.7041 10.899 24.6579C10.7993 24.5807 10.692 24.5036 10.5924 24.4188C10.5847 24.411 10.5694 24.411 10.5694 24.3956C10.5617 24.3879 10.5464 24.3802 10.5387 24.3725C10.4697 24.3185 10.3931 24.2568 10.3241 24.1951C10.3164 24.1874 10.3087 24.1797 10.3011 24.1719C10.2397 24.1257 10.1861 24.0717 10.1324 24.0254C10.0251 23.9328 9.9178 23.8326 9.81048 23.7246C9.71083 23.6243 9.61885 23.5318 9.52686 23.4315C9.45788 23.3621 9.38889 23.285 9.32756 23.2078C9.3199 23.2078 9.3199 23.2001 9.3199 23.2001C9.20492 23.069 9.08993 22.9302 8.97495 22.7913V22.7836C8.86764 22.6525 8.76798 22.5214 8.66833 22.3826C8.66067 22.3749 8.66067 22.3594 8.64534 22.3517C8.42304 22.0278 8.22374 21.6961 8.03977 21.3568C7.95545 21.2102 7.87879 21.0482 7.8098 20.9017C7.80214 20.8786 7.78681 20.8554 7.77914 20.8323C7.77148 20.8246 7.77148 20.8169 7.77148 20.8091C7.71782 20.6857 7.6565 20.5546 7.6105 20.4235C7.58751 20.3772 7.56451 20.3232 7.54918 20.2692C7.52618 20.2307 7.51852 20.1921 7.50319 20.1536C7.46486 20.0456 7.42653 19.9376 7.38821 19.8296C7.38054 19.8065 7.37288 19.7911 7.36521 19.7679C7.28089 19.5057 7.2119 19.2512 7.15058 18.9889C7.15058 18.9812 7.14291 18.9735 7.14291 18.9658C7.13525 18.9581 7.13525 18.9426 7.13525 18.9349C7.12758 18.9118 7.12758 18.8886 7.11991 18.8655C7.11225 18.8347 7.11225 18.8038 7.09692 18.773C6.95128 18.1714 6.63699 17.616 6.17707 17.1533C5.50251 16.49 4.63631 16.166 3.77012 16.166C2.88093 16.166 1.9994 16.5054 1.31718 17.1995C0.558301 17.9708 0.244018 19.0275 0.359 20.0302V20.0456L0.366666 20.0533L0.374329 20.0996C0.412656 20.2924 0.45865 20.4852 0.504643 20.6857L0.512309 20.7089C0.519974 20.7474 0.535305 20.7783 0.550636 20.8091C0.550636 20.8323 0.565965 20.8631 0.565965 20.8786C0.5583 20.8477 0.535305 20.8014 0.512309 20.7397C0.535305 20.84 0.558301 20.9326 0.588963 21.0251C0.634956 21.2025 0.688613 21.3799 0.734606 21.5496C0.788264 21.727 0.834257 21.8967 0.903246 22.0663C0.956904 22.236 1.01823 22.4057 1.07955 22.5754C1.11788 22.6911 1.16387 22.7991 1.20986 22.9148C1.27119 23.0767 1.34017 23.2387 1.40916 23.3929C1.46282 23.5241 1.52415 23.6629 1.58547 23.794C1.63146 23.8943 1.68512 24.01 1.73111 24.1102C1.73878 24.1257 1.74644 24.1488 1.75411 24.1642C1.76177 24.1874 1.77711 24.2028 1.77711 24.2182C1.84609 24.3339 1.89975 24.4573 1.96108 24.573C2.10672 24.843 2.25236 25.1129 2.421 25.3751C2.47466 25.4754 2.53598 25.568 2.59731 25.6682C2.70462 25.8302 2.81194 25.9999 2.91926 26.1619C2.98824 26.2621 3.05723 26.3701 3.13389 26.4704C3.2642 26.6555 3.40218 26.8406 3.54016 27.018C3.54782 27.0334 3.55549 27.0411 3.57082 27.0565C3.6858 27.2108 3.80845 27.3574 3.94642 27.5116C4.04607 27.6427 4.16106 27.7738 4.2837 27.8973C4.36802 27.9975 4.46001 28.1055 4.55966 28.2058C4.68997 28.3523 4.82795 28.4911 4.97359 28.6377C5.1499 28.8151 5.33387 28.9925 5.5255 29.1544C5.54084 29.1776 5.56383 29.193 5.57916 29.2084C5.61749 29.2393 5.64815 29.2701 5.67881 29.2933C5.81679 29.4244 5.96243 29.5401 6.10041 29.6558C6.20006 29.7406 6.29971 29.8177 6.40703 29.9026C6.591 30.0491 6.77497 30.188 6.96661 30.3191C7.15058 30.4502 7.33455 30.5813 7.51852 30.7047C7.67949 30.8127 7.84813 30.913 8.02444 31.021C7.77914 30.4656 7.64117 29.8563 7.64117 29.2239C7.64883 28.0361 8.10109 26.91 8.93662 26.0616Z" fill="#09A3AE"/>
<path d="M17.9187 26.4713C17.4971 26.5253 17.0755 26.5561 16.6539 26.5561C16.4469 26.5561 16.2399 26.5484 16.0253 26.533C15.8643 26.5253 15.711 26.5099 15.55 26.4944C15.1898 26.4559 14.8295 26.3942 14.4769 26.3093C14.3389 26.2785 14.2009 26.2476 14.0629 26.2091C13.8713 26.1551 13.6797 26.1011 13.4957 26.0317L13.4037 26.0008L13.2734 25.9545C12.8978 25.8234 12.5069 25.7617 12.1159 25.7617C11.2267 25.7617 10.3375 26.1011 9.67065 26.7952C8.33686 28.1527 8.35986 30.3431 9.70898 31.6852C9.96194 31.9397 10.2532 32.148 10.5598 32.2945L10.6212 32.3176C10.8281 32.4256 11.0581 32.5105 11.2881 32.5644L11.1884 32.5259C11.2881 32.5567 11.38 32.5799 11.449 32.603L11.334 32.5722C11.403 32.5953 11.4644 32.6184 11.5334 32.6339C11.7403 32.7033 11.9473 32.765 12.1619 32.8267C12.3536 32.8807 12.5529 32.9347 12.7522 32.9887C13.6107 33.2046 14.4845 33.3357 15.3661 33.4051C15.7953 33.4437 16.2323 33.4591 16.6615 33.4591C17.7117 33.4591 18.7619 33.3589 19.8044 33.1583C19.3061 32.9424 18.8538 32.6339 18.4552 32.2405C16.8762 30.6825 16.6999 28.2298 17.9187 26.4713Z" fill="#09A3AE"/>
<path d="M31.6618 21.8277C31.6235 21.6966 31.5775 21.5577 31.5162 21.4266C31.3475 21.041 31.1022 20.6785 30.7803 20.3622C30.1134 19.7067 29.2472 19.375 28.381 19.375H28.266C28.197 19.3827 28.1204 19.3827 28.0437 19.3904C27.9901 19.3904 27.9288 19.3981 27.8828 19.4059C27.7141 19.429 27.5531 19.4598 27.3922 19.5138C27.2849 19.5524 27.1775 19.5832 27.0702 19.6295C26.8633 19.7144 26.664 19.8223 26.48 19.9535C26.2807 20.0846 26.0891 20.2388 25.9127 20.4162C25.6598 20.6708 25.4528 20.9638 25.2995 21.2646C24.9392 21.9588 24.4946 22.6067 23.9657 23.216C23.8507 23.3471 23.7281 23.4782 23.6055 23.6094C22.8159 24.4115 21.9267 25.0594 20.9685 25.5299C20.7846 25.6224 20.6006 25.7072 20.4166 25.7844C20.2863 25.8384 20.1637 25.8846 20.041 25.9463C19.7191 26.116 19.4125 26.332 19.1365 26.6096C17.8104 27.9748 17.8257 30.1576 19.1748 31.4919C19.8417 32.1552 20.7156 32.4868 21.5818 32.4868C21.9267 32.4868 22.2793 32.4328 22.6089 32.3326L22.6319 32.3249C22.7776 32.2709 22.9309 32.2015 23.0842 32.1398L23.1992 32.0935L23.2145 32.0858L23.2605 32.0626C23.5518 31.9392 23.8431 31.8004 24.119 31.6539C25.7058 30.8594 27.1775 29.7873 28.4883 28.453C28.9176 28.0134 29.3162 27.5583 29.6918 27.0878C30.0368 26.6482 30.351 26.1932 30.6423 25.7304C30.788 25.5067 30.9259 25.2753 31.0563 25.0439H31.0639C31.1482 24.8897 31.2249 24.7509 31.3015 24.6043C31.4165 24.4192 31.5085 24.2264 31.5852 24.0258C31.6005 23.9796 31.6235 23.9256 31.6312 23.8793C31.6465 23.8253 31.6695 23.779 31.6772 23.725C31.7002 23.6479 31.7232 23.5708 31.7308 23.4937C31.7385 23.4551 31.7538 23.4088 31.7538 23.3625C31.7615 23.3086 31.7691 23.2623 31.7768 23.2006C31.7845 23.1466 31.7921 23.0926 31.7921 23.0386C31.7998 22.8535 31.7998 22.6607 31.7845 22.4678C31.7615 22.2519 31.7231 22.0359 31.6618 21.8277Z" fill="#09A3AE"/>
<path d="M24.6792 52.0008C22.8395 52.0008 21.2911 51.3838 20.034 50.1497C18.7769 48.9157 18.1406 47.3037 18.1406 45.3138C18.1406 43.3316 18.7769 41.7196 20.057 40.4778C21.3371 39.2361 22.8625 38.6113 24.6409 38.6113C26.2737 38.6113 27.5844 39.0278 28.5733 39.8608C29.5621 40.6938 30.206 41.6965 30.4896 42.8688L28.1517 43.6093C27.9677 42.8842 27.5921 42.2749 27.0172 41.7736C26.4423 41.2723 25.6528 41.0255 24.6409 41.0255C23.5984 41.0255 22.6786 41.4034 21.8967 42.1515C21.1071 42.8997 20.7162 43.9563 20.7162 45.3215C20.7162 46.625 21.0995 47.6585 21.8737 48.4221C22.6479 49.1856 23.5831 49.5636 24.6716 49.5636C25.6681 49.5636 26.4653 49.3013 27.0555 48.7846C27.6458 48.2678 28.052 47.6508 28.2513 46.9335L30.574 47.6431C30.4437 48.1598 30.229 48.6689 29.9377 49.1625C29.6465 49.6561 29.2632 50.1189 28.7956 50.5585C28.328 50.9904 27.7378 51.3452 27.0249 51.6075C26.312 51.862 25.5301 52.0008 24.6792 52.0008Z" fill="#A8A8A7"/>
<path d="M32.8417 43.8791C33.7233 42.9845 34.8348 42.5371 36.1609 42.5371C37.4947 42.5371 38.5985 42.9845 39.48 43.8791C40.3615 44.7738 40.8061 45.8999 40.8061 47.2651C40.8061 48.6303 40.3615 49.7563 39.48 50.651C38.5985 51.5457 37.487 51.9931 36.1609 51.9931C34.8271 51.9931 33.7233 51.5457 32.8417 50.651C31.9602 49.7563 31.5156 48.6303 31.5156 47.2651C31.5233 45.9076 31.9602 44.7738 32.8417 43.8791ZM34.5741 49.1393C35.0111 49.5866 35.54 49.8103 36.1685 49.8103C36.7971 49.8103 37.326 49.5866 37.763 49.1393C38.1999 48.692 38.4222 48.0672 38.4222 47.2728C38.4222 46.4784 38.1999 45.8536 37.763 45.4063C37.326 44.9589 36.7971 44.7353 36.1685 44.7353C35.54 44.7353 35.0111 44.9589 34.5741 45.4063C34.1372 45.8536 33.9149 46.4784 33.9149 47.2728C33.9149 48.0672 34.1372 48.692 34.5741 49.1393Z" fill="#A8A8A7"/>
<path d="M45.0908 51.7232H42.6992V38.6113H45.0908V51.7232Z" fill="#A8A8A7"/>
<path d="M48.3105 43.8791C49.192 42.9845 50.3035 42.5371 51.6296 42.5371C52.9634 42.5371 54.0672 42.9845 54.9488 43.8791C55.8303 44.7738 56.2749 45.8999 56.2749 47.2651C56.2749 48.6303 55.8303 49.7563 54.9488 50.651C54.0672 51.5457 52.9557 51.9931 51.6296 51.9931C50.2958 51.9931 49.192 51.5457 48.3105 50.651C47.429 49.7563 46.9844 48.6303 46.9844 47.2651C46.9844 45.9076 47.429 44.7738 48.3105 43.8791ZM50.0352 49.1393C50.4721 49.5866 51.0011 49.8103 51.6296 49.8103C52.2505 49.8103 52.7871 49.5866 53.224 49.1393C53.661 48.692 53.8833 48.0672 53.8833 47.2728C53.8833 46.4784 53.661 45.8536 53.224 45.4063C52.7871 44.9589 52.2582 44.7353 51.6296 44.7353C51.0087 44.7353 50.4721 44.9589 50.0352 45.4063C49.5983 45.8536 49.376 46.4784 49.376 47.2728C49.376 48.0672 49.5983 48.692 50.0352 49.1393Z" fill="#A8A8A7"/>
<path d="M64.1246 52.0008C62.2849 52.0008 60.7364 51.3838 59.4793 50.1497C58.2222 48.9157 57.5859 47.3037 57.5859 45.3138C57.5859 43.3316 58.2222 41.7196 59.5023 40.4778C60.7824 39.2361 62.3078 38.6113 64.0862 38.6113C65.719 38.6113 67.0298 39.0278 68.0186 39.8608C69.0074 40.6938 69.6513 41.6965 69.935 42.8688L67.597 43.6093C67.413 42.8842 67.0374 42.2749 66.4625 41.7736C65.8876 41.2723 65.0981 41.0255 64.0862 41.0255C63.0437 41.0255 62.1239 41.4034 61.342 42.1515C60.5525 42.8997 60.1615 43.9563 60.1615 45.3215C60.1615 46.625 60.5448 47.6585 61.319 48.4221C62.0932 49.1856 63.0284 49.5636 64.1169 49.5636C65.1134 49.5636 65.9106 49.3013 66.5008 48.7846C67.0911 48.2678 67.4973 47.6508 67.6966 46.9335L70.0193 47.6431C69.889 48.1598 69.6743 48.6689 69.383 49.1625C69.0918 49.6561 68.7085 50.1189 68.2409 50.5585C67.7733 50.9904 67.1831 51.3452 66.4702 51.6075C65.7573 51.862 64.9754 52.0008 64.1246 52.0008Z" fill="#A8A8A7"/>
<path d="M74.1533 51.7232H71.7617V38.6113H74.1533V51.7232Z" fill="#A8A8A7"/>
<path d="M82.6545 48.5763L84.6552 49.1702C84.4175 49.9877 83.9423 50.6664 83.2447 51.1986C82.5395 51.7308 81.6733 51.9931 80.6231 51.9931C79.3507 51.9931 78.2699 51.5611 77.3807 50.6973C76.4915 49.8335 76.0469 48.6765 76.0469 47.2265C76.0469 45.8536 76.4761 44.7276 77.3423 43.8483C78.2085 42.9767 79.228 42.5371 80.4008 42.5371C81.7653 42.5371 82.8384 42.9459 83.6127 43.7712C84.3869 44.5887 84.7701 45.7225 84.7701 47.1571C84.7701 47.2574 84.7701 47.3653 84.7625 47.481C84.7548 47.5967 84.7548 47.697 84.7548 47.7741L84.7395 47.8975H78.4002C78.4232 48.476 78.6531 48.9619 79.0824 49.3476C79.5116 49.7332 80.0329 49.926 80.6308 49.926C81.658 49.9337 82.3249 49.4787 82.6545 48.5763ZM78.4538 46.2547H82.4168C82.3939 45.7611 82.2175 45.3446 81.8879 45.0052C81.5583 44.6659 81.0754 44.4962 80.4392 44.4962C79.8643 44.4962 79.3967 44.6736 79.0364 45.0361C78.6761 45.4063 78.4768 45.8074 78.4538 46.2547Z" fill="#A8A8A7"/>
<path d="M86.125 49.3015C86.125 48.5379 86.3703 47.9286 86.8609 47.4735C87.3515 47.0185 87.9877 46.7254 88.7696 46.602L90.9466 46.278C91.3912 46.2163 91.6135 46.0081 91.6135 45.6456C91.6135 45.3062 91.4831 45.0286 91.2302 44.8126C90.9696 44.5966 90.6016 44.4887 90.1264 44.4887C89.6204 44.4887 89.2218 44.6275 88.9305 44.9052C88.6393 45.1828 88.4706 45.5299 88.4323 45.9387L86.309 45.4836C86.3933 44.7123 86.7689 44.0259 87.4435 43.4397C88.118 42.8458 88.9995 42.5527 90.111 42.5527C91.4295 42.5527 92.403 42.869 93.0239 43.5014C93.6448 44.1339 93.9591 44.9514 93.9591 45.9387V50.3196C93.9591 50.8518 93.9974 51.3222 94.0664 51.731H91.8664C91.8051 51.4688 91.7744 51.1063 91.7744 50.6589C91.2072 51.5382 90.341 51.9778 89.1605 51.9778C88.2483 51.9778 87.5124 51.7156 86.9529 51.1834C86.3933 50.6512 86.125 50.0265 86.125 49.3015ZM89.6741 50.1885C90.2413 50.1885 90.7013 50.0265 91.0692 49.7103C91.4371 49.3863 91.6211 48.8618 91.6211 48.1214V47.7203L89.6204 48.0289C88.8846 48.1368 88.5243 48.5148 88.5243 49.1549C88.5243 49.448 88.6239 49.6871 88.8309 49.8876C89.0302 50.0882 89.3138 50.1885 89.6741 50.1885Z" fill="#A8A8A7"/>
<path d="M101.771 42.7749V45.2044C101.534 45.1582 101.289 45.135 101.051 45.135C100.369 45.135 99.8168 45.3278 99.3952 45.7212C98.9736 46.1146 98.7666 46.7547 98.7666 47.6494V51.7218H96.375V42.8135H98.6976V44.1324C99.1269 43.1991 99.9701 42.7363 101.22 42.7363C101.342 42.7363 101.526 42.7518 101.771 42.7749Z" fill="#A8A8A7"/>
</svg>
