<svg width="24" height="25" viewBox="0 0 24 25" fill="none" xmlns="http://www.w3.org/2000/svg">
<path d="M17.4903 8.57839C17.7044 8.30758 17.6584 7.91454 17.3876 7.7005C17.1167 7.48646 16.7237 7.53248 16.5097 7.80328L9.97383 16.0724L9.96649 16.0819C9.94248 16.1135 9.91128 16.1389 9.87548 16.156C9.83967 16.1731 9.8003 16.1814 9.76064 16.1803C9.72097 16.1791 9.68217 16.1684 9.64745 16.1492C9.61273 16.13 9.5831 16.1028 9.56103 16.0698L9.55257 16.0575L7.51091 13.16C7.31208 12.8778 6.92217 12.8103 6.64 13.0091C6.35783 13.2079 6.29027 13.5978 6.48909 13.88L8.52704 16.7722C8.65934 16.9675 8.83587 17.1288 9.04229 17.243C9.25119 17.3585 9.48468 17.4226 9.72331 17.4297C9.96195 17.4368 10.1988 17.3869 10.4143 17.284C10.6276 17.182 10.8139 17.0311 10.9577 16.8435L17.4903 8.57839Z" fill="#9D9D9D"/>
<path fill-rule="evenodd" clip-rule="evenodd" d="M12 2.5C9.34784 2.5 6.8043 3.55357 4.92893 5.42893C3.05357 7.3043 2 9.84784 2 12.5C2 15.1522 3.05357 17.6957 4.92893 19.5711C6.8043 21.4464 9.34783 22.5 12 22.5C14.6522 22.5 17.1957 21.4464 19.0711 19.5711C20.9464 17.6957 22 15.1522 22 12.5C22 9.84784 20.9464 7.3043 19.0711 5.42893C17.1957 3.55357 14.6522 2.5 12 2.5ZM5.81282 6.31282C7.45376 4.67187 9.67936 3.75 12 3.75C14.3206 3.75 16.5462 4.67187 18.1872 6.31282C19.8281 7.95376 20.75 10.1794 20.75 12.5C20.75 14.8206 19.8281 17.0462 18.1872 18.6872C16.5462 20.3281 14.3206 21.25 12 21.25C9.67936 21.25 7.45376 20.3281 5.81282 18.6872C4.17187 17.0462 3.25 14.8206 3.25 12.5C3.25 10.1794 4.17187 7.95376 5.81282 6.31282Z" fill="#9D9D9D"/>
</svg>
