<svg width="24" height="24" viewBox="0 0 24 24" fill="none" xmlns="http://www.w3.org/2000/svg">
<path fill-rule="evenodd" clip-rule="evenodd" d="M12 2C9.34784 2 6.8043 3.05357 4.92893 4.92893C3.05357 6.8043 2 9.34784 2 12C2 14.6522 3.05357 17.1957 4.92893 19.0711C6.8043 20.9464 9.34784 22 12 22C14.6522 22 17.1957 20.9464 19.0711 19.0711C20.9464 17.1957 22 14.6522 22 12C22 9.34784 20.9464 6.8043 19.0711 4.92893C17.1957 3.05357 14.6522 2 12 2ZM5.81282 5.81282C7.45376 4.17187 9.67936 3.25 12 3.25C14.3206 3.25 16.5462 4.17187 18.1872 5.81282C19.8281 7.45376 20.75 9.67936 20.75 12C20.75 14.3206 19.8281 16.5462 18.1872 18.1872C16.5462 19.8281 14.3206 20.75 12 20.75C9.67936 20.75 7.45376 19.8281 5.81282 18.1872C4.17187 16.5462 3.25 14.3206 3.25 12C3.25 9.67936 4.17187 7.45376 5.81282 5.81282ZM11.1667 7.158C11.3208 7.05498 11.5021 7 11.6875 7C11.9361 7 12.1746 7.09877 12.3504 7.27459C12.5262 7.4504 12.625 7.68886 12.625 7.9375C12.625 8.12292 12.57 8.30418 12.467 8.45835C12.364 8.61252 12.2176 8.73268 12.0463 8.80364C11.875 8.87459 11.6865 8.89316 11.5046 8.85699C11.3227 8.82081 11.1557 8.73152 11.0246 8.60041C10.8935 8.4693 10.8042 8.30225 10.768 8.1204C10.7318 7.93854 10.7504 7.75004 10.8214 7.57873C10.8923 7.40743 11.0125 7.26101 11.1667 7.158ZM10.75 10.125C10.4048 10.125 10.125 10.4048 10.125 10.75C10.125 11.0952 10.4048 11.375 10.75 11.375H11.375V14.5C11.375 14.9973 11.5725 15.4742 11.9242 15.8258C12.2758 16.1775 12.7527 16.375 13.25 16.375H13.875C14.2202 16.375 14.5 16.0952 14.5 15.75C14.5 15.4048 14.2202 15.125 13.875 15.125H13.25C13.0842 15.125 12.9253 15.0592 12.8081 14.9419C12.6908 14.8247 12.625 14.6658 12.625 14.5V11.375C12.625 11.0435 12.4933 10.7255 12.2589 10.4911C12.0245 10.2567 11.7065 10.125 11.375 10.125H10.75Z" fill="#09A3AE"/>
</svg>
