<svg width="20" height="20" viewBox="0 0 20 20" fill="none" xmlns="http://www.w3.org/2000/svg">
<path d="M16.875 10.625V1.875C16.875 1.54348 16.7433 1.22554 16.5089 0.991117C16.2745 0.756696 15.9565 0.625 15.625 0.625H4.375C4.04348 0.625 3.72554 0.756696 3.49112 0.991117C3.2567 1.22554 3.125 1.54348 3.125 1.875V10.625" stroke="#09A3AE" stroke-width="1.25" stroke-linecap="round" stroke-linejoin="round"/>
<path d="M18.3334 9.55036C18.4276 9.47891 18.5397 9.43487 18.6573 9.42311C18.775 9.41134 18.8936 9.43231 19 9.48369C19.1059 9.53331 19.1951 9.61235 19.2572 9.71136C19.3193 9.81038 19.3515 9.92518 19.35 10.042V18.1254C19.35 18.4569 19.2184 18.7748 18.9839 19.0092C18.7495 19.2437 18.4316 19.3754 18.1 19.3754H1.87505C1.54353 19.3754 1.22558 19.2437 0.991163 19.0092C0.756743 18.7748 0.625047 18.4569 0.625047 18.1254V10.042C0.623596 9.92518 0.655832 9.81038 0.7179 9.71136C0.779969 9.61235 0.869243 9.53331 0.975047 9.48369C1.08153 9.43231 1.20013 9.41134 1.31777 9.42311C1.43541 9.43487 1.54752 9.47891 1.64171 9.55036L8.45838 14.467C8.89836 14.8117 9.44115 14.999 10 14.999C10.5589 14.999 11.1017 14.8117 11.5417 14.467L18.3334 9.55036Z" stroke="#09A3AE" stroke-width="1.25" stroke-linecap="round" stroke-linejoin="round"/>
<path d="M6.46094 3.54297H9.3776" stroke="#09A3AE" stroke-width="1.25" stroke-linecap="round" stroke-linejoin="round"/>
<path d="M6.46094 6.45703H13.5443" stroke="#09A3AE" stroke-width="1.25" stroke-linecap="round" stroke-linejoin="round"/>
<path d="M6.46094 9.375H13.5443" stroke="#09A3AE" stroke-width="1.25" stroke-linecap="round" stroke-linejoin="round"/>
</svg>
