<svg width="20" height="20" viewBox="0 0 20 20" fill="none" xmlns="http://www.w3.org/2000/svg">
<path fill-rule="evenodd" clip-rule="evenodd" d="M10 0C7.34784 0 4.8043 1.05357 2.92893 2.92893C1.05357 4.8043 0 7.34784 0 10C0 12.6522 1.05357 15.1957 2.92893 17.0711C4.8043 18.9464 7.34784 20 10 20C12.6522 20 15.1957 18.9464 17.0711 17.0711C18.9464 15.1957 20 12.6522 20 10C20 7.34784 18.9464 4.8043 17.0711 2.92893C15.1957 1.05357 12.6522 0 10 0ZM3.81282 3.81282C5.45376 2.17187 7.67936 1.25 10 1.25C12.3206 1.25 14.5462 2.17187 16.1872 3.81282C17.8281 5.45376 18.75 7.67936 18.75 10C18.75 12.3206 17.8281 14.5462 16.1872 16.1872C14.5462 17.8281 12.3206 18.75 10 18.75C7.67936 18.75 5.45376 17.8281 3.81282 16.1872C2.17187 14.5462 1.25 12.3206 1.25 10C1.25 7.67936 2.17187 5.45376 3.81282 3.81282ZM9.16665 5.158C9.32082 5.05498 9.50208 5 9.6875 5C9.93614 5 10.1746 5.09877 10.3504 5.27459C10.5262 5.4504 10.625 5.68886 10.625 5.9375C10.625 6.12292 10.57 6.30418 10.467 6.45835C10.364 6.61252 10.2176 6.73268 10.0463 6.80364C9.87496 6.87459 9.68646 6.89316 9.5046 6.85699C9.32274 6.82081 9.1557 6.73152 9.02459 6.60041C8.89347 6.4693 8.80419 6.30225 8.76801 6.1204C8.73184 5.93854 8.75041 5.75004 8.82136 5.57873C8.89232 5.40743 9.01248 5.26101 9.16665 5.158ZM8.75 8.125C8.40482 8.125 8.125 8.40482 8.125 8.75C8.125 9.09518 8.40482 9.375 8.75 9.375H9.375V12.5C9.375 12.9973 9.57254 13.4742 9.92417 13.8258C10.2758 14.1775 10.7527 14.375 11.25 14.375H11.875C12.2202 14.375 12.5 14.0952 12.5 13.75C12.5 13.4048 12.2202 13.125 11.875 13.125H11.25C11.0842 13.125 10.9253 13.0592 10.8081 12.9419C10.6908 12.8247 10.625 12.6658 10.625 12.5V9.375C10.625 9.04348 10.4933 8.72554 10.2589 8.49112C10.0245 8.2567 9.70652 8.125 9.375 8.125H8.75Z" fill="#09A3AE"/>
</svg>
