<svg width="38" height="40" viewBox="0 0 38 40" fill="none" xmlns="http://www.w3.org/2000/svg">
<path d="M24 32.5C24 34.1576 23.3415 35.7473 22.1694 36.9194C20.9973 38.0915 19.4076 38.75 17.75 38.75C16.0924 38.75 14.5027 38.0915 13.3306 36.9194C12.1585 35.7473 11.5 34.1576 11.5 32.5V1.25H24V32.5Z" stroke="#09A3AE" stroke-width="2.5" stroke-linecap="round" stroke-linejoin="round"/>
<path d="M27.75 1.25H7.75" stroke="#09A3AE" stroke-width="2.5" stroke-linecap="round" stroke-linejoin="round"/>
<path d="M19.625 13.75C19.7908 13.75 19.9497 13.8158 20.0669 13.9331C20.1842 14.0503 20.25 14.2092 20.25 14.375" stroke="#09A3AE" stroke-width="2.5" stroke-linecap="round" stroke-linejoin="round"/>
<path d="M19 14.375C19 14.2092 19.0658 14.0503 19.1831 13.9331C19.3003 13.8158 19.4592 13.75 19.625 13.75" stroke="#09A3AE" stroke-width="2.5" stroke-linecap="round" stroke-linejoin="round"/>
<path d="M19.625 15C19.4592 15 19.3003 14.9342 19.1831 14.8169C19.0658 14.6997 19 14.5408 19 14.375" stroke="#09A3AE" stroke-width="2.5" stroke-linecap="round" stroke-linejoin="round"/>
<path d="M20.25 14.375C20.25 14.5408 20.1842 14.6997 20.0669 14.8169C19.9497 14.9342 19.7908 15 19.625 15" stroke="#09A3AE" stroke-width="2.5" stroke-linecap="round" stroke-linejoin="round"/>
<path d="M15.875 21.25C16.0408 21.25 16.1997 21.3158 16.3169 21.4331C16.4342 21.5503 16.5 21.7092 16.5 21.875" stroke="#09A3AE" stroke-width="2.5" stroke-linecap="round" stroke-linejoin="round"/>
<path d="M15.25 21.875C15.25 21.7092 15.3158 21.5503 15.4331 21.4331C15.5503 21.3158 15.7092 21.25 15.875 21.25" stroke="#09A3AE" stroke-width="2.5" stroke-linecap="round" stroke-linejoin="round"/>
<path d="M15.875 22.5C15.7092 22.5 15.5503 22.4342 15.4331 22.3169C15.3158 22.1997 15.25 22.0408 15.25 21.875" stroke="#09A3AE" stroke-width="2.5" stroke-linecap="round" stroke-linejoin="round"/>
<path d="M16.5 21.875C16.5 22.0408 16.4342 22.1997 16.3169 22.3169C16.1997 22.4342 16.0408 22.5 15.875 22.5" stroke="#09A3AE" stroke-width="2.5" stroke-linecap="round" stroke-linejoin="round"/>
<path d="M18.375 28.75C18.5408 28.75 18.6997 28.8158 18.8169 28.9331C18.9342 29.0503 19 29.2092 19 29.375" stroke="#09A3AE" stroke-width="2.5" stroke-linecap="round" stroke-linejoin="round"/>
<path d="M17.75 29.375C17.75 29.2092 17.8158 29.0503 17.9331 28.9331C18.0503 28.8158 18.2092 28.75 18.375 28.75" stroke="#09A3AE" stroke-width="2.5" stroke-linecap="round" stroke-linejoin="round"/>
<path d="M18.375 30C18.2092 30 18.0503 29.9342 17.9331 29.8169C17.8158 29.6997 17.75 29.5408 17.75 29.375" stroke="#09A3AE" stroke-width="2.5" stroke-linecap="round" stroke-linejoin="round"/>
<path d="M19 29.375C19 29.5408 18.9342 29.6997 18.8169 29.8169C18.6997 29.9342 18.5408 30 18.375 30" stroke="#09A3AE" stroke-width="2.5" stroke-linecap="round" stroke-linejoin="round"/>
<path d="M24 8.75H11.5" stroke="#09A3AE" stroke-width="2.5" stroke-linecap="round" stroke-linejoin="round"/>
<path d="M1.5 21.25H6.5" stroke="#09A3AE" stroke-width="2.5" stroke-linecap="round" stroke-linejoin="round"/>
<path d="M4 18.75V23.75" stroke="#09A3AE" stroke-width="2.5" stroke-linecap="round" stroke-linejoin="round"/>
<path d="M31.5 8.75C31.5 9.41304 31.7634 10.0489 32.2322 10.5178C32.7011 10.9866 33.337 11.25 34 11.25C34.663 11.25 35.2989 10.9866 35.7678 10.5178C36.2366 10.0489 36.5 9.41304 36.5 8.75C36.5 8.08696 36.2366 7.45107 35.7678 6.98223C35.2989 6.51339 34.663 6.25 34 6.25C33.337 6.25 32.7011 6.51339 32.2322 6.98223C31.7634 7.45107 31.5 8.08696 31.5 8.75Z" stroke="#09A3AE" stroke-width="2.5" stroke-linecap="round" stroke-linejoin="round"/>
</svg>
