<svg width="46" height="56" viewBox="0 0 46 56" fill="none" xmlns="http://www.w3.org/2000/svg">
<path d="M43.918 22.75C43.9176 18.7766 42.79 14.8848 40.666 11.5267C38.5421 8.16856 35.509 5.48192 31.9191 3.77882C28.3291 2.07572 24.3297 1.42604 20.3853 1.90525C16.4409 2.38446 12.7133 3.97289 9.63565 6.48605C6.55796 8.99921 4.25643 12.334 2.99836 16.103C1.7403 19.872 1.57734 23.9205 2.52841 27.7785C3.47948 31.6364 5.50554 35.1453 8.37128 37.8977C11.237 40.6501 14.8248 42.533 18.718 43.3277L22.918 54.25L27.118 43.3277C31.8609 42.3595 36.1237 39.7825 39.1851 36.0328C42.2465 32.283 43.9184 27.5908 43.918 22.75V22.75Z" stroke="black" stroke-width="3.5" stroke-linecap="round" stroke-linejoin="round"/>
<path d="M16.7305 28.938L29.1065 16.562" stroke="#E32F29" stroke-width="3.5" stroke-linecap="round" stroke-linejoin="round"/>
<path d="M16.7305 16.562L29.1065 28.938" stroke="#E32F29" stroke-width="3.5" stroke-linecap="round" stroke-linejoin="round"/>
</svg>
