<svg width="24" height="25" viewBox="0 0 24 25" fill="none" xmlns="http://www.w3.org/2000/svg">
<path d="M4.80469 8.77951H8.88052L8.88135 3.88867" stroke="#09A3AE" stroke-width="1.25" stroke-linecap="round" stroke-linejoin="round"/>
<path d="M7.5825 16.8331C5.96061 16.5704 4.45606 15.8234 3.26633 14.6903C2.0766 13.5571 1.25731 12.0907 0.916 10.4835C0.574691 8.87636 0.727316 7.20354 1.35384 5.68466C1.98037 4.16579 3.05151 2.87185 4.42666 1.97271C5.80181 1.07356 7.4167 0.611228 9.05934 0.646399C10.702 0.68157 12.2956 1.2126 13.631 2.16978C14.9664 3.12697 15.9812 4.46557 16.5421 6.00987C17.1031 7.55416 17.184 9.23198 16.7742 10.8231" stroke="#09A3AE" stroke-width="1.25" stroke-linecap="round" stroke-linejoin="round"/>
<path d="M14.4 17.3H13.6V15.48H12.44V17.3H10.25L12.66 12.63H11.41L9 17.3V18.37H12.44V19.63H13.6V18.37H14.4V17.3Z" fill="#09A3AE"/>
<path d="M18.8496 15.99C19.3296 15.68 19.6496 15.18 19.6496 14.51C19.6496 13.16 18.5896 12.5 17.4296 12.5C16.2596 12.5 15.2096 13.16 15.2096 14.51C15.2096 15.18 15.5296 15.68 15.9996 15.99C15.3596 16.35 14.9696 16.96 14.9696 17.69C14.9696 18.99 15.9696 19.76 17.4296 19.76C18.8896 19.76 19.8796 18.99 19.8796 17.69C19.8796 16.95 19.4996 16.35 18.8496 15.99ZM17.4296 13.59C18.0096 13.59 18.4996 13.91 18.4996 14.56C18.4996 15.18 18.0096 15.53 17.4296 15.53C16.8396 15.53 16.3596 15.18 16.3596 14.56C16.3596 13.91 16.8396 13.59 17.4296 13.59ZM17.4296 18.67C16.6696 18.67 16.1196 18.29 16.1196 17.58C16.1196 16.86 16.6696 16.49 17.4296 16.49C18.1796 16.49 18.7296 16.86 18.7296 17.58C18.7296 18.29 18.1796 18.67 17.4296 18.67Z" fill="#09A3AE"/>
</svg>
