<svg width="20" height="20" viewBox="0 0 20 20" fill="none" xmlns="http://www.w3.org/2000/svg">
<g clip-path="url(#clip0_1268_31799)">
<path d="M12.5 12.8483V3.125C12.5 2.46196 12.2366 1.82607 11.7678 1.35723C11.2989 0.888392 10.663 0.625 10 0.625C9.33696 0.625 8.70107 0.888392 8.23223 1.35723C7.76339 1.82607 7.5 2.46196 7.5 3.125V12.8483C6.93393 13.3546 6.53493 14.0209 6.3558 14.7589C6.17667 15.497 6.22586 16.272 6.49685 16.9815C6.76785 17.691 7.24788 18.3014 7.87342 18.7321C8.49896 19.1628 9.24053 19.3934 10 19.3934C10.7595 19.3934 11.501 19.1628 12.1266 18.7321C12.7521 18.3014 13.2322 17.691 13.5031 16.9815C13.7741 16.272 13.8233 15.497 13.6442 14.7589C13.4651 14.0209 13.0661 13.3546 12.5 12.8483V12.8483Z" stroke="#09A3AE" stroke-width="1.25" stroke-linecap="round" stroke-linejoin="round"/>
<path d="M10 4.375V14.375" stroke="#09A3AE" stroke-width="1.25" stroke-linecap="round" stroke-linejoin="round"/>
<path d="M8.75 15.625C8.75 15.9565 8.8817 16.2745 9.11612 16.5089C9.35054 16.7433 9.66848 16.875 10 16.875C10.3315 16.875 10.6495 16.7433 10.8839 16.5089C11.1183 16.2745 11.25 15.9565 11.25 15.625C11.25 15.2935 11.1183 14.9755 10.8839 14.7411C10.6495 14.5067 10.3315 14.375 10 14.375C9.66848 14.375 9.35054 14.5067 9.11612 14.7411C8.8817 14.9755 8.75 15.2935 8.75 15.625V15.625Z" stroke="#09A3AE" stroke-width="1.25" stroke-linecap="round" stroke-linejoin="round"/>
</g>
<defs>
<clipPath id="clip0_1268_31799">
<rect width="20" height="20" fill="white"/>
</clipPath>
</defs>
</svg>
