<?xml version="1.0" standalone="no"?>
<!DOCTYPE svg PUBLIC "-//W3C//DTD SVG 20010904//EN"
 "http://www.w3.org/TR/2001/REC-SVG-20010904/DTD/svg10.dtd">
<svg version="1.0" xmlns="http://www.w3.org/2000/svg"
 width="1024.000000pt" height="1024.000000pt" viewBox="0 0 1024.000000 1024.000000"
 preserveAspectRatio="xMidYMid meet">
<metadata>
Created by potrace 1.14, written by Peter Selinger 2001-2017
</metadata>
<g transform="translate(0.000000,1024.000000) scale(0.100000,-0.100000)"
fill="#000000" stroke="none">
<path d="M1233 6119 c-6 -24 -17 -66 -23 -94 -6 -27 -15 -66 -20 -85 -5 -19
-12 -51 -14 -70 -3 -19 -11 -62 -16 -95 -18 -99 -31 -195 -37 -277 l-6 -78 82
0 c80 0 129 -6 321 -37 157 -26 243 -45 420 -91 74 -19 276 -84 315 -101 11
-5 40 -17 65 -26 52 -19 90 -36 180 -77 122 -56 279 -139 319 -167 16 -12 32
-21 36 -21 3 0 25 -13 48 -28 23 -15 54 -34 70 -41 15 -8 27 -18 27 -23 0 -4
6 -8 13 -8 7 0 23 -9 35 -20 12 -11 25 -20 30 -20 4 0 17 -8 28 -17 10 -10 36
-29 56 -43 21 -14 38 -28 38 -32 0 -5 6 -8 13 -8 6 0 26 -12 42 -28 17 -15 46
-39 65 -53 19 -15 46 -37 60 -49 14 -12 52 -45 85 -73 156 -134 373 -370 517
-562 80 -108 178 -250 178 -260 0 -4 14 -26 30 -50 16 -24 30 -48 30 -53 0 -6
3 -12 8 -14 14 -6 169 -315 202 -403 7 -18 15 -39 39 -97 5 -13 15 -40 22 -60
13 -39 29 -51 29 -21 0 9 4 30 10 47 5 17 28 87 50 156 22 69 45 133 50 142 6
10 10 23 10 28 0 6 9 30 20 52 11 23 20 46 20 50 0 5 9 28 20 50 11 23 20 46
20 51 0 4 14 38 31 75 17 37 42 91 55 120 13 28 36 77 50 108 l27 55 -23 42
c-13 23 -28 52 -34 64 -6 13 -14 23 -18 23 -5 0 -8 5 -8 11 0 9 -165 259 -197
299 -7 8 -35 44 -63 80 -75 96 -78 100 -134 165 -152 180 -437 464 -549 548
-21 16 -48 39 -62 53 -13 13 -26 24 -29 24 -5 0 -33 21 -60 45 -6 6 -27 22
-46 35 -19 14 -42 30 -50 37 -34 28 -227 163 -250 175 -14 7 -36 20 -50 29
-14 9 -41 26 -61 37 -76 43 -84 47 -89 52 -10 11 -297 156 -380 192 -25 11
-62 29 -83 39 -22 11 -43 19 -48 19 -6 0 -29 9 -51 20 -23 11 -50 20 -59 20
-10 0 -20 4 -23 8 -3 4 -28 14 -56 22 -28 8 -53 18 -56 22 -3 4 -14 8 -25 8
-10 0 -27 4 -37 9 -16 9 -92 34 -157 51 -110 31 -196 53 -232 61 -99 21 -141
30 -193 39 -146 26 -297 46 -430 56 l-85 7 -12 -44z"/>
<path d="M1197 4834 c-3 -3 -21 -7 -39 -9 -28 -2 -34 -7 -37 -31 -4 -34 26
-264 49 -369 4 -22 13 -65 20 -95 21 -101 53 -225 67 -257 11 -29 18 -33 49
-33 20 0 53 -4 73 -9 20 -5 61 -14 91 -21 30 -6 66 -15 80 -20 14 -4 45 -13
70 -20 83 -23 115 -34 124 -42 6 -4 16 -8 23 -8 7 0 35 -10 61 -21 26 -12 63
-28 82 -36 43 -18 145 -69 221 -110 67 -36 243 -153 247 -165 2 -4 8 -8 14 -8
17 0 160 -122 263 -225 191 -191 341 -400 459 -640 66 -136 81 -172 119 -286
31 -92 42 -131 77 -269 5 -19 14 -64 19 -100 5 -36 13 -83 17 -105 4 -22 9
-125 13 -229 5 -153 9 -190 21 -197 15 -8 113 -53 183 -83 79 -34 103 -44 137
-56 19 -7 44 -16 55 -20 25 -11 185 -63 245 -80 25 -7 59 -17 76 -23 67 -22
68 -15 80 303 11 301 -29 626 -117 938 -5 17 -13 47 -18 65 -19 70 -50 156
-72 199 -5 10 -9 22 -9 28 0 6 -9 32 -21 58 -12 26 -29 65 -39 87 -35 79 -139
284 -150 295 -5 5 -24 37 -44 75 -35 64 -175 258 -264 364 -162 193 -364 383
-548 516 -38 27 -70 53 -72 57 -2 4 -8 8 -14 8 -12 0 -102 61 -106 72 -2 4 -9
8 -16 8 -7 0 -21 8 -32 18 -10 10 -26 21 -34 25 -8 3 -37 20 -65 36 -27 17
-102 56 -165 87 -63 31 -132 65 -153 75 -22 10 -43 19 -48 19 -6 0 -29 9 -51
20 -23 11 -48 20 -55 20 -7 0 -21 4 -31 10 -33 19 -253 85 -367 111 -123 28
-226 46 -340 59 -49 6 -97 13 -106 15 -8 3 -18 2 -22 -1z"/>
<path d="M5997 4746 c-188 -204 -346 -401 -474 -591 -63 -95 -143 -224 -143
-232 0 -2 -13 -23 -28 -46 -16 -23 -32 -49 -35 -57 -4 -8 -20 -37 -37 -65 -41
-69 -160 -314 -160 -330 0 -3 -9 -27 -21 -53 -35 -78 -49 -113 -69 -172 -7
-19 -16 -44 -21 -55 -35 -80 -131 -426 -159 -570 -6 -33 -15 -78 -20 -100 -19
-94 -42 -255 -61 -440 -17 -158 -13 -874 4 -892 2 -1 47 -8 101 -14 99 -12
442 -6 576 9 50 5 64 10 62 22 -21 90 -23 759 -4 870 5 30 15 93 22 140 11 76
48 268 70 360 26 111 107 373 132 430 6 14 15 35 19 48 10 25 25 62 38 95 21
51 164 336 191 382 17 28 33 57 37 65 12 27 185 282 240 355 103 134 221 271
332 384 62 63 108 117 104 121 -4 4 -51 36 -103 70 -103 69 -369 265 -438 323
-24 20 -49 37 -56 37 -7 0 -51 -43 -99 -94z"/>
<path d="M8920 4819 c-135 -16 -306 -49 -450 -87 -97 -25 -283 -88 -337 -113
-24 -10 -46 -19 -51 -19 -5 0 -30 -11 -58 -24 -27 -13 -67 -31 -89 -40 -22
-10 -49 -23 -60 -29 -11 -6 -51 -27 -90 -48 -38 -20 -87 -46 -107 -58 -21 -11
-54 -30 -74 -41 -273 -155 -637 -485 -871 -790 -52 -69 -185 -265 -196 -290
-4 -8 -20 -37 -36 -65 -57 -95 -150 -290 -196 -410 -15 -38 -31 -79 -36 -90
-4 -11 -18 -51 -29 -90 -12 -38 -26 -81 -31 -95 -40 -112 -87 -369 -114 -620
-19 -183 -7 -651 17 -666 5 -3 21 -2 36 4 15 5 47 15 72 22 25 6 53 16 62 21
10 5 27 9 37 9 11 0 23 5 26 10 3 6 17 10 30 10 13 0 27 5 30 10 3 6 15 10 26
10 10 0 27 4 37 9 9 5 44 19 77 31 33 12 79 31 102 41 24 11 48 19 55 20 7 1
49 20 93 43 l80 41 2 155 c3 201 24 362 70 540 14 52 27 107 30 123 3 15 9 30
14 33 5 3 9 15 9 28 0 12 4 26 8 32 4 5 14 27 21 49 17 51 42 108 97 220 182
370 470 697 826 936 48 33 90 59 94 59 4 0 15 6 23 14 23 20 289 152 356 177
11 4 45 16 75 28 54 20 114 37 235 67 102 25 138 33 187 39 53 7 65 21 80 90
5 22 13 56 17 75 44 179 75 362 97 578 l7 62 -69 -1 c-38 -1 -98 -5 -134 -10z"/>
<path d="M1940 3220 c-225 -42 -431 -219 -488 -417 -7 -24 -17 -60 -23 -81
-12 -42 -7 -212 8 -277 8 -35 23 -73 55 -140 39 -85 178 -223 266 -265 114
-55 162 -65 302 -65 106 0 135 4 190 24 121 44 157 67 255 167 117 119 175
263 175 432 -1 205 -79 362 -250 505 -25 20 -51 37 -57 37 -7 0 -13 3 -13 8 0
8 -30 21 -115 51 -68 23 -233 35 -305 21z"/>
<path d="M8120 3223 c-226 -17 -448 -197 -528 -428 -89 -254 15 -565 238 -714
67 -44 102 -61 195 -91 57 -19 267 -17 330 2 112 35 187 80 276 168 102 102
145 180 175 320 38 178 -10 369 -128 511 -140 169 -334 249 -558 232z"/>
</g>
</svg>
